M48
;GenerationSoftware,Autodesk,EAGLE,9.6.2*%
;CreationDate,2022-09-21T23:22:59Z*%
FMAT,2
ICI,OFF
METRIC,TZ,000.000
T12C0.508
T11C0.610
T10C0.813
T9C0.914
T8C1.000
T7C1.016
T6C1.100
T5C1.118
T4C1.600
T3C3.000
T2C3.302
%
G90
M71
T2
X39802Y11684
X64846Y11684
X41275Y49911
T3
X2540Y52070
X2540Y19050
X66040Y19050
X66040Y52070
T4
X10740Y36830
X19740Y36830
X48840Y36830
X57840Y36830
T5
X55499Y25400
X52705Y25400
X52705Y15240
X49911Y25400
X49911Y15240
X55499Y15240
T6
X17740Y29830
X50840Y29830
X12740Y29830
X53340Y29830
X55840Y29830
X15240Y29830
T7
X43815Y34925
X49581Y12954
X52324Y12954
X46838Y12954
X56439Y10414
X48209Y10414
X55067Y12954
X41275Y34925
X38735Y34925
X5359Y10871
X9881Y10871
X5359Y4369
X9881Y4369
X57810Y12954
X50952Y10414
X53696Y10414
T8
X30226Y13768
X30226Y7668
X35026Y10668
T9
X24765Y12573
X34925Y17780
X47625Y17780
X34925Y26035
X47625Y26035
X34925Y30480
X47625Y30480
X12065Y12573
X12065Y7620
X24765Y7620
X12065Y3175
X24765Y3175
T10
X33909Y33020
X2540Y3048
X2540Y5588
X60960Y38735
X16510Y25400
X19050Y19050
X16510Y19050
X60325Y46990
X62865Y46990
X33909Y41275
X33909Y43815
X63500Y38735
X66040Y38735
X19050Y25400
X63500Y33655
X66040Y33655
X60960Y33655
X63500Y28575
X66040Y28575
X60960Y28575
X50165Y46990
X52705Y46990
X33909Y35560
X22987Y35560
X30607Y25400
X30607Y22860
X30607Y20320
X30607Y17780
X22987Y17780
X22987Y20320
X22987Y22860
X22987Y25400
X22987Y27940
X22987Y30480
X22987Y33020
X2540Y10668
X22987Y38100
X22987Y40640
X22987Y43180
X22987Y45720
X22987Y48260
X22987Y50800
X4953Y27940
X2413Y27940
X4953Y44450
X2413Y44450
X30607Y30480
X2540Y8128
X2540Y13208
X19050Y50800
X8890Y50800
X58420Y21590
X60960Y21590
X33020Y21590
X35560Y21590
X7620Y21590
X10160Y21590
X30607Y50800
X30607Y48260
X30607Y45720
X30607Y43180
X30607Y40640
X30607Y38100
X30607Y35560
X30607Y33020
X30607Y27940
T11
X3683Y33655
X3683Y38735
T12
X51435Y20320
X57150Y40640
X36830Y19050
X55880Y40640
M30