G04 EAGLE Gerber RS-274X export*
G75*
%MOMM*%
%FSLAX34Y34*%
%LPD*%
%INSilkscreen Bottom*%
%IPPOS*%
%AMOC8*
5,1,8,0,0,1.08239X$1,22.5*%
G01*
%ADD10C,0.152400*%
%ADD11C,0.203200*%
%ADD12C,0.254000*%
%ADD13C,0.101600*%
%ADD14C,0.050800*%
%ADD15C,0.127000*%


D10*
X602516Y263793D02*
X599807Y263793D01*
X599807Y254762D01*
X605226Y254762D01*
X605344Y254764D01*
X605462Y254770D01*
X605580Y254779D01*
X605697Y254793D01*
X605814Y254810D01*
X605931Y254831D01*
X606046Y254856D01*
X606161Y254885D01*
X606275Y254918D01*
X606387Y254954D01*
X606498Y254994D01*
X606608Y255037D01*
X606717Y255084D01*
X606824Y255134D01*
X606929Y255189D01*
X607032Y255246D01*
X607133Y255307D01*
X607233Y255371D01*
X607330Y255438D01*
X607425Y255508D01*
X607517Y255582D01*
X607608Y255658D01*
X607695Y255738D01*
X607780Y255820D01*
X607862Y255905D01*
X607942Y255992D01*
X608018Y256083D01*
X608092Y256175D01*
X608162Y256270D01*
X608229Y256367D01*
X608293Y256467D01*
X608354Y256568D01*
X608411Y256671D01*
X608466Y256776D01*
X608516Y256883D01*
X608563Y256992D01*
X608606Y257102D01*
X608646Y257213D01*
X608682Y257325D01*
X608715Y257439D01*
X608744Y257554D01*
X608769Y257669D01*
X608790Y257786D01*
X608807Y257903D01*
X608821Y258020D01*
X608830Y258138D01*
X608836Y258256D01*
X608838Y258374D01*
X608838Y267406D01*
X608836Y267524D01*
X608830Y267642D01*
X608821Y267760D01*
X608807Y267877D01*
X608790Y267994D01*
X608769Y268111D01*
X608744Y268226D01*
X608715Y268341D01*
X608682Y268455D01*
X608646Y268567D01*
X608606Y268678D01*
X608563Y268788D01*
X608516Y268897D01*
X608466Y269004D01*
X608411Y269109D01*
X608354Y269212D01*
X608293Y269313D01*
X608229Y269413D01*
X608162Y269510D01*
X608092Y269605D01*
X608018Y269697D01*
X607942Y269788D01*
X607862Y269875D01*
X607780Y269960D01*
X607695Y270042D01*
X607608Y270122D01*
X607517Y270198D01*
X607425Y270272D01*
X607330Y270342D01*
X607233Y270409D01*
X607133Y270473D01*
X607032Y270534D01*
X606929Y270591D01*
X606824Y270646D01*
X606717Y270696D01*
X606608Y270743D01*
X606498Y270786D01*
X606387Y270826D01*
X606275Y270862D01*
X606161Y270895D01*
X606046Y270924D01*
X605931Y270949D01*
X605814Y270970D01*
X605697Y270987D01*
X605580Y271001D01*
X605462Y271010D01*
X605344Y271016D01*
X605226Y271018D01*
X599807Y271018D01*
X354838Y271018D02*
X349419Y263342D01*
X344001Y271018D01*
X349419Y263342D02*
X349419Y254762D01*
X100838Y259278D02*
X100838Y266502D01*
X100836Y266635D01*
X100830Y266767D01*
X100820Y266899D01*
X100807Y267031D01*
X100789Y267163D01*
X100768Y267293D01*
X100743Y267424D01*
X100714Y267553D01*
X100681Y267681D01*
X100645Y267809D01*
X100605Y267935D01*
X100561Y268060D01*
X100513Y268184D01*
X100462Y268306D01*
X100407Y268427D01*
X100349Y268546D01*
X100287Y268664D01*
X100222Y268779D01*
X100153Y268893D01*
X100082Y269004D01*
X100006Y269113D01*
X99928Y269220D01*
X99847Y269325D01*
X99762Y269427D01*
X99675Y269527D01*
X99585Y269624D01*
X99492Y269719D01*
X99396Y269810D01*
X99298Y269899D01*
X99197Y269985D01*
X99093Y270068D01*
X98987Y270148D01*
X98879Y270224D01*
X98769Y270298D01*
X98656Y270368D01*
X98542Y270435D01*
X98425Y270498D01*
X98307Y270558D01*
X98187Y270615D01*
X98065Y270668D01*
X97942Y270717D01*
X97818Y270763D01*
X97692Y270805D01*
X97565Y270843D01*
X97437Y270878D01*
X97308Y270909D01*
X97179Y270936D01*
X97048Y270959D01*
X96917Y270979D01*
X96785Y270994D01*
X96653Y271006D01*
X96521Y271014D01*
X96388Y271018D01*
X96256Y271018D01*
X96123Y271014D01*
X95991Y271006D01*
X95859Y270994D01*
X95727Y270979D01*
X95596Y270959D01*
X95465Y270936D01*
X95336Y270909D01*
X95207Y270878D01*
X95079Y270843D01*
X94952Y270805D01*
X94826Y270763D01*
X94702Y270717D01*
X94579Y270668D01*
X94457Y270615D01*
X94337Y270558D01*
X94219Y270498D01*
X94102Y270435D01*
X93988Y270368D01*
X93875Y270298D01*
X93765Y270224D01*
X93657Y270148D01*
X93551Y270068D01*
X93447Y269985D01*
X93346Y269899D01*
X93248Y269810D01*
X93152Y269719D01*
X93059Y269624D01*
X92969Y269527D01*
X92882Y269427D01*
X92797Y269325D01*
X92716Y269220D01*
X92638Y269113D01*
X92562Y269004D01*
X92491Y268893D01*
X92422Y268779D01*
X92357Y268664D01*
X92295Y268546D01*
X92237Y268427D01*
X92182Y268306D01*
X92131Y268184D01*
X92083Y268060D01*
X92039Y267935D01*
X91999Y267809D01*
X91963Y267681D01*
X91930Y267553D01*
X91901Y267424D01*
X91876Y267293D01*
X91855Y267163D01*
X91837Y267031D01*
X91824Y266899D01*
X91814Y266767D01*
X91808Y266635D01*
X91806Y266502D01*
X91807Y266502D02*
X91807Y259278D01*
X91806Y259278D02*
X91808Y259145D01*
X91814Y259013D01*
X91824Y258881D01*
X91837Y258749D01*
X91855Y258617D01*
X91876Y258487D01*
X91901Y258356D01*
X91930Y258227D01*
X91963Y258099D01*
X91999Y257971D01*
X92039Y257845D01*
X92083Y257720D01*
X92131Y257596D01*
X92182Y257474D01*
X92237Y257353D01*
X92295Y257234D01*
X92357Y257116D01*
X92422Y257001D01*
X92491Y256887D01*
X92562Y256776D01*
X92638Y256667D01*
X92716Y256560D01*
X92797Y256455D01*
X92882Y256353D01*
X92969Y256253D01*
X93059Y256156D01*
X93152Y256061D01*
X93248Y255970D01*
X93346Y255881D01*
X93447Y255795D01*
X93551Y255712D01*
X93657Y255632D01*
X93765Y255556D01*
X93875Y255482D01*
X93988Y255412D01*
X94102Y255345D01*
X94219Y255282D01*
X94337Y255222D01*
X94457Y255165D01*
X94579Y255112D01*
X94702Y255063D01*
X94826Y255017D01*
X94952Y254975D01*
X95079Y254937D01*
X95207Y254902D01*
X95336Y254871D01*
X95465Y254844D01*
X95596Y254821D01*
X95727Y254801D01*
X95859Y254786D01*
X95991Y254774D01*
X96123Y254766D01*
X96256Y254762D01*
X96388Y254762D01*
X96521Y254766D01*
X96653Y254774D01*
X96785Y254786D01*
X96917Y254801D01*
X97048Y254821D01*
X97179Y254844D01*
X97308Y254871D01*
X97437Y254902D01*
X97565Y254937D01*
X97692Y254975D01*
X97818Y255017D01*
X97942Y255063D01*
X98065Y255112D01*
X98187Y255165D01*
X98307Y255222D01*
X98425Y255282D01*
X98542Y255345D01*
X98656Y255412D01*
X98769Y255482D01*
X98879Y255556D01*
X98987Y255632D01*
X99093Y255712D01*
X99197Y255795D01*
X99298Y255881D01*
X99396Y255970D01*
X99492Y256061D01*
X99585Y256156D01*
X99675Y256253D01*
X99762Y256353D01*
X99847Y256455D01*
X99928Y256560D01*
X100006Y256667D01*
X100082Y256776D01*
X100153Y256887D01*
X100222Y257001D01*
X100287Y257116D01*
X100349Y257234D01*
X100407Y257353D01*
X100462Y257474D01*
X100513Y257596D01*
X100561Y257720D01*
X100605Y257845D01*
X100645Y257971D01*
X100681Y258099D01*
X100714Y258227D01*
X100743Y258356D01*
X100768Y258487D01*
X100789Y258617D01*
X100807Y258749D01*
X100820Y258881D01*
X100830Y259013D01*
X100836Y259145D01*
X100838Y259278D01*
D11*
X63500Y234950D02*
X63500Y196850D01*
D12*
X63974Y196234D01*
X64463Y195629D01*
X64967Y195037D01*
X65485Y194457D01*
X66017Y193890D01*
X66563Y193336D01*
X67122Y192796D01*
X67695Y192270D01*
X68280Y191757D01*
X68877Y191260D01*
X69486Y190777D01*
X70107Y190309D01*
X70740Y189856D01*
X71383Y189419D01*
X72037Y188998D01*
X72701Y188594D01*
X73374Y188205D01*
X74057Y187833D01*
X74749Y187478D01*
X75449Y187140D01*
X76157Y186819D01*
X76873Y186516D01*
X77597Y186230D01*
X78326Y185962D01*
X79063Y185712D01*
X79805Y185481D01*
X80553Y185267D01*
X81305Y185072D01*
X82063Y184895D01*
X82824Y184737D01*
X83589Y184597D01*
X84357Y184477D01*
X85128Y184375D01*
X85901Y184292D01*
X86676Y184228D01*
X87452Y184183D01*
X88229Y184157D01*
X89007Y184150D01*
X89784Y184162D01*
X90561Y184193D01*
X91337Y184244D01*
X92112Y184313D01*
X92884Y184401D01*
X93654Y184508D01*
X94422Y184634D01*
X95186Y184778D01*
X95946Y184942D01*
X96702Y185124D01*
X97453Y185324D01*
X98200Y185542D01*
X98940Y185779D01*
X99675Y186034D01*
X100403Y186307D01*
X101124Y186598D01*
X101838Y186906D01*
X102544Y187231D01*
X103242Y187574D01*
X103932Y187934D01*
X104612Y188310D01*
X105283Y188703D01*
X105944Y189113D01*
X106595Y189538D01*
X107235Y189979D01*
X107864Y190436D01*
X108482Y190908D01*
X109088Y191395D01*
X109682Y191897D01*
X110264Y192413D01*
X110833Y192943D01*
X111388Y193487D01*
X111931Y194045D01*
X112459Y194615D01*
X112973Y195198D01*
X113473Y195794D01*
X113958Y196402D01*
X114428Y197021D01*
X114882Y197652D01*
X115321Y198294D01*
X115745Y198946D01*
X116152Y199609D01*
X116543Y200281D01*
X116917Y200963D01*
X117274Y201653D01*
X117614Y202352D01*
X117938Y203060D01*
X118243Y203774D01*
X118532Y204497D01*
X118802Y205226D01*
X119054Y205961D01*
X119289Y206703D01*
X119505Y207450D01*
X119703Y208202D01*
X119882Y208958D01*
X120043Y209719D01*
X120185Y210483D01*
X120308Y211251D01*
X120412Y212022D01*
X120498Y212795D01*
X120564Y213569D01*
X120612Y214345D01*
X120640Y215122D01*
X120650Y215900D01*
X120640Y216678D01*
X120612Y217455D01*
X120564Y218231D01*
X120498Y219005D01*
X120412Y219778D01*
X120308Y220549D01*
X120185Y221317D01*
X120043Y222081D01*
X119882Y222842D01*
X119703Y223598D01*
X119505Y224350D01*
X119289Y225097D01*
X119054Y225839D01*
X118802Y226574D01*
X118532Y227303D01*
X118243Y228026D01*
X117938Y228740D01*
X117614Y229448D01*
X117274Y230147D01*
X116917Y230837D01*
X116543Y231519D01*
X116152Y232191D01*
X115745Y232854D01*
X115321Y233506D01*
X114882Y234148D01*
X114428Y234779D01*
X113958Y235398D01*
X113473Y236006D01*
X112973Y236602D01*
X112459Y237185D01*
X111931Y237755D01*
X111388Y238313D01*
X110833Y238857D01*
X110264Y239387D01*
X109682Y239903D01*
X109088Y240405D01*
X108482Y240892D01*
X107864Y241364D01*
X107235Y241821D01*
X106595Y242262D01*
X105944Y242687D01*
X105283Y243097D01*
X104612Y243490D01*
X103932Y243866D01*
X103242Y244226D01*
X102544Y244569D01*
X101838Y244894D01*
X101124Y245202D01*
X100403Y245493D01*
X99675Y245766D01*
X98940Y246021D01*
X98200Y246258D01*
X97453Y246476D01*
X96702Y246676D01*
X95946Y246858D01*
X95186Y247022D01*
X94422Y247166D01*
X93654Y247292D01*
X92884Y247399D01*
X92112Y247487D01*
X91337Y247556D01*
X90561Y247607D01*
X89784Y247638D01*
X89007Y247650D01*
X88229Y247643D01*
X87452Y247617D01*
X86676Y247572D01*
X85901Y247508D01*
X85128Y247425D01*
X84357Y247323D01*
X83589Y247203D01*
X82824Y247063D01*
X82063Y246905D01*
X81305Y246728D01*
X80553Y246533D01*
X79805Y246319D01*
X79063Y246088D01*
X78326Y245838D01*
X77597Y245570D01*
X76873Y245284D01*
X76157Y244981D01*
X75449Y244660D01*
X74749Y244322D01*
X74057Y243967D01*
X73374Y243595D01*
X72701Y243206D01*
X72037Y242802D01*
X71383Y242381D01*
X70740Y241944D01*
X70107Y241491D01*
X69486Y241023D01*
X68877Y240540D01*
X68280Y240043D01*
X67695Y239530D01*
X67122Y239004D01*
X66563Y238464D01*
X66017Y237910D01*
X65485Y237343D01*
X64967Y236763D01*
X64463Y236171D01*
X63974Y235566D01*
X63500Y234950D01*
D10*
X63500Y215900D02*
X63508Y216523D01*
X63531Y217146D01*
X63569Y217769D01*
X63622Y218390D01*
X63691Y219009D01*
X63775Y219627D01*
X63874Y220242D01*
X63988Y220855D01*
X64117Y221465D01*
X64261Y222072D01*
X64420Y222675D01*
X64594Y223273D01*
X64782Y223868D01*
X64985Y224457D01*
X65202Y225041D01*
X65433Y225620D01*
X65679Y226193D01*
X65939Y226760D01*
X66212Y227320D01*
X66499Y227873D01*
X66800Y228420D01*
X67114Y228958D01*
X67441Y229489D01*
X67781Y230011D01*
X68133Y230526D01*
X68499Y231031D01*
X68876Y231527D01*
X69266Y232014D01*
X69667Y232491D01*
X70080Y232958D01*
X70504Y233414D01*
X70939Y233861D01*
X71386Y234296D01*
X71842Y234720D01*
X72309Y235133D01*
X72786Y235534D01*
X73273Y235924D01*
X73769Y236301D01*
X74274Y236667D01*
X74789Y237019D01*
X75311Y237359D01*
X75842Y237686D01*
X76380Y238000D01*
X76927Y238301D01*
X77480Y238588D01*
X78040Y238861D01*
X78607Y239121D01*
X79180Y239367D01*
X79759Y239598D01*
X80343Y239815D01*
X80932Y240018D01*
X81527Y240206D01*
X82125Y240380D01*
X82728Y240539D01*
X83335Y240683D01*
X83945Y240812D01*
X84558Y240926D01*
X85173Y241025D01*
X85791Y241109D01*
X86410Y241178D01*
X87031Y241231D01*
X87654Y241269D01*
X88277Y241292D01*
X88900Y241300D01*
X89523Y241292D01*
X90146Y241269D01*
X90769Y241231D01*
X91390Y241178D01*
X92009Y241109D01*
X92627Y241025D01*
X93242Y240926D01*
X93855Y240812D01*
X94465Y240683D01*
X95072Y240539D01*
X95675Y240380D01*
X96273Y240206D01*
X96868Y240018D01*
X97457Y239815D01*
X98041Y239598D01*
X98620Y239367D01*
X99193Y239121D01*
X99760Y238861D01*
X100320Y238588D01*
X100873Y238301D01*
X101420Y238000D01*
X101958Y237686D01*
X102489Y237359D01*
X103011Y237019D01*
X103526Y236667D01*
X104031Y236301D01*
X104527Y235924D01*
X105014Y235534D01*
X105491Y235133D01*
X105958Y234720D01*
X106414Y234296D01*
X106861Y233861D01*
X107296Y233414D01*
X107720Y232958D01*
X108133Y232491D01*
X108534Y232014D01*
X108924Y231527D01*
X109301Y231031D01*
X109667Y230526D01*
X110019Y230011D01*
X110359Y229489D01*
X110686Y228958D01*
X111000Y228420D01*
X111301Y227873D01*
X111588Y227320D01*
X111861Y226760D01*
X112121Y226193D01*
X112367Y225620D01*
X112598Y225041D01*
X112815Y224457D01*
X113018Y223868D01*
X113206Y223273D01*
X113380Y222675D01*
X113539Y222072D01*
X113683Y221465D01*
X113812Y220855D01*
X113926Y220242D01*
X114025Y219627D01*
X114109Y219009D01*
X114178Y218390D01*
X114231Y217769D01*
X114269Y217146D01*
X114292Y216523D01*
X114300Y215900D01*
X114292Y215277D01*
X114269Y214654D01*
X114231Y214031D01*
X114178Y213410D01*
X114109Y212791D01*
X114025Y212173D01*
X113926Y211558D01*
X113812Y210945D01*
X113683Y210335D01*
X113539Y209728D01*
X113380Y209125D01*
X113206Y208527D01*
X113018Y207932D01*
X112815Y207343D01*
X112598Y206759D01*
X112367Y206180D01*
X112121Y205607D01*
X111861Y205040D01*
X111588Y204480D01*
X111301Y203927D01*
X111000Y203380D01*
X110686Y202842D01*
X110359Y202311D01*
X110019Y201789D01*
X109667Y201274D01*
X109301Y200769D01*
X108924Y200273D01*
X108534Y199786D01*
X108133Y199309D01*
X107720Y198842D01*
X107296Y198386D01*
X106861Y197939D01*
X106414Y197504D01*
X105958Y197080D01*
X105491Y196667D01*
X105014Y196266D01*
X104527Y195876D01*
X104031Y195499D01*
X103526Y195133D01*
X103011Y194781D01*
X102489Y194441D01*
X101958Y194114D01*
X101420Y193800D01*
X100873Y193499D01*
X100320Y193212D01*
X99760Y192939D01*
X99193Y192679D01*
X98620Y192433D01*
X98041Y192202D01*
X97457Y191985D01*
X96868Y191782D01*
X96273Y191594D01*
X95675Y191420D01*
X95072Y191261D01*
X94465Y191117D01*
X93855Y190988D01*
X93242Y190874D01*
X92627Y190775D01*
X92009Y190691D01*
X91390Y190622D01*
X90769Y190569D01*
X90146Y190531D01*
X89523Y190508D01*
X88900Y190500D01*
X88277Y190508D01*
X87654Y190531D01*
X87031Y190569D01*
X86410Y190622D01*
X85791Y190691D01*
X85173Y190775D01*
X84558Y190874D01*
X83945Y190988D01*
X83335Y191117D01*
X82728Y191261D01*
X82125Y191420D01*
X81527Y191594D01*
X80932Y191782D01*
X80343Y191985D01*
X79759Y192202D01*
X79180Y192433D01*
X78607Y192679D01*
X78040Y192939D01*
X77480Y193212D01*
X76927Y193499D01*
X76380Y193800D01*
X75842Y194114D01*
X75311Y194441D01*
X74789Y194781D01*
X74274Y195133D01*
X73769Y195499D01*
X73273Y195876D01*
X72786Y196266D01*
X72309Y196667D01*
X71842Y197080D01*
X71386Y197504D01*
X70939Y197939D01*
X70504Y198386D01*
X70080Y198842D01*
X69667Y199309D01*
X69266Y199786D01*
X68876Y200273D01*
X68499Y200769D01*
X68133Y201274D01*
X67781Y201789D01*
X67441Y202311D01*
X67114Y202842D01*
X66800Y203380D01*
X66499Y203927D01*
X66212Y204480D01*
X65939Y205040D01*
X65679Y205607D01*
X65433Y206180D01*
X65202Y206759D01*
X64985Y207343D01*
X64782Y207932D01*
X64594Y208527D01*
X64420Y209125D01*
X64261Y209728D01*
X64117Y210335D01*
X63988Y210945D01*
X63874Y211558D01*
X63775Y212173D01*
X63691Y212791D01*
X63622Y213410D01*
X63569Y214031D01*
X63531Y214654D01*
X63508Y215277D01*
X63500Y215900D01*
D11*
X317500Y196850D02*
X317500Y234950D01*
D12*
X317974Y235566D01*
X318463Y236171D01*
X318967Y236763D01*
X319485Y237343D01*
X320017Y237910D01*
X320563Y238464D01*
X321122Y239004D01*
X321695Y239530D01*
X322280Y240043D01*
X322877Y240540D01*
X323486Y241023D01*
X324107Y241491D01*
X324740Y241944D01*
X325383Y242381D01*
X326037Y242802D01*
X326701Y243206D01*
X327374Y243595D01*
X328057Y243967D01*
X328749Y244322D01*
X329449Y244660D01*
X330157Y244981D01*
X330873Y245284D01*
X331597Y245570D01*
X332326Y245838D01*
X333063Y246088D01*
X333805Y246319D01*
X334553Y246533D01*
X335305Y246728D01*
X336063Y246905D01*
X336824Y247063D01*
X337589Y247203D01*
X338357Y247323D01*
X339128Y247425D01*
X339901Y247508D01*
X340676Y247572D01*
X341452Y247617D01*
X342229Y247643D01*
X343007Y247650D01*
X343784Y247638D01*
X344561Y247607D01*
X345337Y247556D01*
X346112Y247487D01*
X346884Y247399D01*
X347654Y247292D01*
X348422Y247166D01*
X349186Y247022D01*
X349946Y246858D01*
X350702Y246676D01*
X351453Y246476D01*
X352200Y246258D01*
X352940Y246021D01*
X353675Y245766D01*
X354403Y245493D01*
X355124Y245202D01*
X355838Y244894D01*
X356544Y244569D01*
X357242Y244226D01*
X357932Y243866D01*
X358612Y243490D01*
X359283Y243097D01*
X359944Y242687D01*
X360595Y242262D01*
X361235Y241821D01*
X361864Y241364D01*
X362482Y240892D01*
X363088Y240405D01*
X363682Y239903D01*
X364264Y239387D01*
X364833Y238857D01*
X365388Y238313D01*
X365931Y237755D01*
X366459Y237185D01*
X366973Y236602D01*
X367473Y236006D01*
X367958Y235398D01*
X368428Y234779D01*
X368882Y234148D01*
X369321Y233506D01*
X369745Y232854D01*
X370152Y232191D01*
X370543Y231519D01*
X370917Y230837D01*
X371274Y230147D01*
X371614Y229448D01*
X371938Y228740D01*
X372243Y228026D01*
X372532Y227303D01*
X372802Y226574D01*
X373054Y225839D01*
X373289Y225097D01*
X373505Y224350D01*
X373703Y223598D01*
X373882Y222842D01*
X374043Y222081D01*
X374185Y221317D01*
X374308Y220549D01*
X374412Y219778D01*
X374498Y219005D01*
X374564Y218231D01*
X374612Y217455D01*
X374640Y216678D01*
X374650Y215900D01*
X374640Y215122D01*
X374612Y214345D01*
X374564Y213569D01*
X374498Y212795D01*
X374412Y212022D01*
X374308Y211251D01*
X374185Y210483D01*
X374043Y209719D01*
X373882Y208958D01*
X373703Y208202D01*
X373505Y207450D01*
X373289Y206703D01*
X373054Y205961D01*
X372802Y205226D01*
X372532Y204497D01*
X372243Y203774D01*
X371938Y203060D01*
X371614Y202352D01*
X371274Y201653D01*
X370917Y200963D01*
X370543Y200281D01*
X370152Y199609D01*
X369745Y198946D01*
X369321Y198294D01*
X368882Y197652D01*
X368428Y197021D01*
X367958Y196402D01*
X367473Y195794D01*
X366973Y195198D01*
X366459Y194615D01*
X365931Y194045D01*
X365388Y193487D01*
X364833Y192943D01*
X364264Y192413D01*
X363682Y191897D01*
X363088Y191395D01*
X362482Y190908D01*
X361864Y190436D01*
X361235Y189979D01*
X360595Y189538D01*
X359944Y189113D01*
X359283Y188703D01*
X358612Y188310D01*
X357932Y187934D01*
X357242Y187574D01*
X356544Y187231D01*
X355838Y186906D01*
X355124Y186598D01*
X354403Y186307D01*
X353675Y186034D01*
X352940Y185779D01*
X352200Y185542D01*
X351453Y185324D01*
X350702Y185124D01*
X349946Y184942D01*
X349186Y184778D01*
X348422Y184634D01*
X347654Y184508D01*
X346884Y184401D01*
X346112Y184313D01*
X345337Y184244D01*
X344561Y184193D01*
X343784Y184162D01*
X343007Y184150D01*
X342229Y184157D01*
X341452Y184183D01*
X340676Y184228D01*
X339901Y184292D01*
X339128Y184375D01*
X338357Y184477D01*
X337589Y184597D01*
X336824Y184737D01*
X336063Y184895D01*
X335305Y185072D01*
X334553Y185267D01*
X333805Y185481D01*
X333063Y185712D01*
X332326Y185962D01*
X331597Y186230D01*
X330873Y186516D01*
X330157Y186819D01*
X329449Y187140D01*
X328749Y187478D01*
X328057Y187833D01*
X327374Y188205D01*
X326701Y188594D01*
X326037Y188998D01*
X325383Y189419D01*
X324740Y189856D01*
X324107Y190309D01*
X323486Y190777D01*
X322877Y191260D01*
X322280Y191757D01*
X321695Y192270D01*
X321122Y192796D01*
X320563Y193336D01*
X320017Y193890D01*
X319485Y194457D01*
X318967Y195037D01*
X318463Y195629D01*
X317974Y196234D01*
X317500Y196850D01*
D10*
X317500Y215900D02*
X317508Y216523D01*
X317531Y217146D01*
X317569Y217769D01*
X317622Y218390D01*
X317691Y219009D01*
X317775Y219627D01*
X317874Y220242D01*
X317988Y220855D01*
X318117Y221465D01*
X318261Y222072D01*
X318420Y222675D01*
X318594Y223273D01*
X318782Y223868D01*
X318985Y224457D01*
X319202Y225041D01*
X319433Y225620D01*
X319679Y226193D01*
X319939Y226760D01*
X320212Y227320D01*
X320499Y227873D01*
X320800Y228420D01*
X321114Y228958D01*
X321441Y229489D01*
X321781Y230011D01*
X322133Y230526D01*
X322499Y231031D01*
X322876Y231527D01*
X323266Y232014D01*
X323667Y232491D01*
X324080Y232958D01*
X324504Y233414D01*
X324939Y233861D01*
X325386Y234296D01*
X325842Y234720D01*
X326309Y235133D01*
X326786Y235534D01*
X327273Y235924D01*
X327769Y236301D01*
X328274Y236667D01*
X328789Y237019D01*
X329311Y237359D01*
X329842Y237686D01*
X330380Y238000D01*
X330927Y238301D01*
X331480Y238588D01*
X332040Y238861D01*
X332607Y239121D01*
X333180Y239367D01*
X333759Y239598D01*
X334343Y239815D01*
X334932Y240018D01*
X335527Y240206D01*
X336125Y240380D01*
X336728Y240539D01*
X337335Y240683D01*
X337945Y240812D01*
X338558Y240926D01*
X339173Y241025D01*
X339791Y241109D01*
X340410Y241178D01*
X341031Y241231D01*
X341654Y241269D01*
X342277Y241292D01*
X342900Y241300D01*
X343523Y241292D01*
X344146Y241269D01*
X344769Y241231D01*
X345390Y241178D01*
X346009Y241109D01*
X346627Y241025D01*
X347242Y240926D01*
X347855Y240812D01*
X348465Y240683D01*
X349072Y240539D01*
X349675Y240380D01*
X350273Y240206D01*
X350868Y240018D01*
X351457Y239815D01*
X352041Y239598D01*
X352620Y239367D01*
X353193Y239121D01*
X353760Y238861D01*
X354320Y238588D01*
X354873Y238301D01*
X355420Y238000D01*
X355958Y237686D01*
X356489Y237359D01*
X357011Y237019D01*
X357526Y236667D01*
X358031Y236301D01*
X358527Y235924D01*
X359014Y235534D01*
X359491Y235133D01*
X359958Y234720D01*
X360414Y234296D01*
X360861Y233861D01*
X361296Y233414D01*
X361720Y232958D01*
X362133Y232491D01*
X362534Y232014D01*
X362924Y231527D01*
X363301Y231031D01*
X363667Y230526D01*
X364019Y230011D01*
X364359Y229489D01*
X364686Y228958D01*
X365000Y228420D01*
X365301Y227873D01*
X365588Y227320D01*
X365861Y226760D01*
X366121Y226193D01*
X366367Y225620D01*
X366598Y225041D01*
X366815Y224457D01*
X367018Y223868D01*
X367206Y223273D01*
X367380Y222675D01*
X367539Y222072D01*
X367683Y221465D01*
X367812Y220855D01*
X367926Y220242D01*
X368025Y219627D01*
X368109Y219009D01*
X368178Y218390D01*
X368231Y217769D01*
X368269Y217146D01*
X368292Y216523D01*
X368300Y215900D01*
X368292Y215277D01*
X368269Y214654D01*
X368231Y214031D01*
X368178Y213410D01*
X368109Y212791D01*
X368025Y212173D01*
X367926Y211558D01*
X367812Y210945D01*
X367683Y210335D01*
X367539Y209728D01*
X367380Y209125D01*
X367206Y208527D01*
X367018Y207932D01*
X366815Y207343D01*
X366598Y206759D01*
X366367Y206180D01*
X366121Y205607D01*
X365861Y205040D01*
X365588Y204480D01*
X365301Y203927D01*
X365000Y203380D01*
X364686Y202842D01*
X364359Y202311D01*
X364019Y201789D01*
X363667Y201274D01*
X363301Y200769D01*
X362924Y200273D01*
X362534Y199786D01*
X362133Y199309D01*
X361720Y198842D01*
X361296Y198386D01*
X360861Y197939D01*
X360414Y197504D01*
X359958Y197080D01*
X359491Y196667D01*
X359014Y196266D01*
X358527Y195876D01*
X358031Y195499D01*
X357526Y195133D01*
X357011Y194781D01*
X356489Y194441D01*
X355958Y194114D01*
X355420Y193800D01*
X354873Y193499D01*
X354320Y193212D01*
X353760Y192939D01*
X353193Y192679D01*
X352620Y192433D01*
X352041Y192202D01*
X351457Y191985D01*
X350868Y191782D01*
X350273Y191594D01*
X349675Y191420D01*
X349072Y191261D01*
X348465Y191117D01*
X347855Y190988D01*
X347242Y190874D01*
X346627Y190775D01*
X346009Y190691D01*
X345390Y190622D01*
X344769Y190569D01*
X344146Y190531D01*
X343523Y190508D01*
X342900Y190500D01*
X342277Y190508D01*
X341654Y190531D01*
X341031Y190569D01*
X340410Y190622D01*
X339791Y190691D01*
X339173Y190775D01*
X338558Y190874D01*
X337945Y190988D01*
X337335Y191117D01*
X336728Y191261D01*
X336125Y191420D01*
X335527Y191594D01*
X334932Y191782D01*
X334343Y191985D01*
X333759Y192202D01*
X333180Y192433D01*
X332607Y192679D01*
X332040Y192939D01*
X331480Y193212D01*
X330927Y193499D01*
X330380Y193800D01*
X329842Y194114D01*
X329311Y194441D01*
X328789Y194781D01*
X328274Y195133D01*
X327769Y195499D01*
X327273Y195876D01*
X326786Y196266D01*
X326309Y196667D01*
X325842Y197080D01*
X325386Y197504D01*
X324939Y197939D01*
X324504Y198386D01*
X324080Y198842D01*
X323667Y199309D01*
X323266Y199786D01*
X322876Y200273D01*
X322499Y200769D01*
X322133Y201274D01*
X321781Y201789D01*
X321441Y202311D01*
X321114Y202842D01*
X320800Y203380D01*
X320499Y203927D01*
X320212Y204480D01*
X319939Y205040D01*
X319679Y205607D01*
X319433Y206180D01*
X319202Y206759D01*
X318985Y207343D01*
X318782Y207932D01*
X318594Y208527D01*
X318420Y209125D01*
X318261Y209728D01*
X318117Y210335D01*
X317988Y210945D01*
X317874Y211558D01*
X317775Y212173D01*
X317691Y212791D01*
X317622Y213410D01*
X317569Y214031D01*
X317531Y214654D01*
X317508Y215277D01*
X317500Y215900D01*
D11*
X571500Y196850D02*
X571500Y234950D01*
D12*
X571974Y235566D01*
X572463Y236171D01*
X572967Y236763D01*
X573485Y237343D01*
X574017Y237910D01*
X574563Y238464D01*
X575122Y239004D01*
X575695Y239530D01*
X576280Y240043D01*
X576877Y240540D01*
X577486Y241023D01*
X578107Y241491D01*
X578740Y241944D01*
X579383Y242381D01*
X580037Y242802D01*
X580701Y243206D01*
X581374Y243595D01*
X582057Y243967D01*
X582749Y244322D01*
X583449Y244660D01*
X584157Y244981D01*
X584873Y245284D01*
X585597Y245570D01*
X586326Y245838D01*
X587063Y246088D01*
X587805Y246319D01*
X588553Y246533D01*
X589305Y246728D01*
X590063Y246905D01*
X590824Y247063D01*
X591589Y247203D01*
X592357Y247323D01*
X593128Y247425D01*
X593901Y247508D01*
X594676Y247572D01*
X595452Y247617D01*
X596229Y247643D01*
X597007Y247650D01*
X597784Y247638D01*
X598561Y247607D01*
X599337Y247556D01*
X600112Y247487D01*
X600884Y247399D01*
X601654Y247292D01*
X602422Y247166D01*
X603186Y247022D01*
X603946Y246858D01*
X604702Y246676D01*
X605453Y246476D01*
X606200Y246258D01*
X606940Y246021D01*
X607675Y245766D01*
X608403Y245493D01*
X609124Y245202D01*
X609838Y244894D01*
X610544Y244569D01*
X611242Y244226D01*
X611932Y243866D01*
X612612Y243490D01*
X613283Y243097D01*
X613944Y242687D01*
X614595Y242262D01*
X615235Y241821D01*
X615864Y241364D01*
X616482Y240892D01*
X617088Y240405D01*
X617682Y239903D01*
X618264Y239387D01*
X618833Y238857D01*
X619388Y238313D01*
X619931Y237755D01*
X620459Y237185D01*
X620973Y236602D01*
X621473Y236006D01*
X621958Y235398D01*
X622428Y234779D01*
X622882Y234148D01*
X623321Y233506D01*
X623745Y232854D01*
X624152Y232191D01*
X624543Y231519D01*
X624917Y230837D01*
X625274Y230147D01*
X625614Y229448D01*
X625938Y228740D01*
X626243Y228026D01*
X626532Y227303D01*
X626802Y226574D01*
X627054Y225839D01*
X627289Y225097D01*
X627505Y224350D01*
X627703Y223598D01*
X627882Y222842D01*
X628043Y222081D01*
X628185Y221317D01*
X628308Y220549D01*
X628412Y219778D01*
X628498Y219005D01*
X628564Y218231D01*
X628612Y217455D01*
X628640Y216678D01*
X628650Y215900D01*
X628640Y215122D01*
X628612Y214345D01*
X628564Y213569D01*
X628498Y212795D01*
X628412Y212022D01*
X628308Y211251D01*
X628185Y210483D01*
X628043Y209719D01*
X627882Y208958D01*
X627703Y208202D01*
X627505Y207450D01*
X627289Y206703D01*
X627054Y205961D01*
X626802Y205226D01*
X626532Y204497D01*
X626243Y203774D01*
X625938Y203060D01*
X625614Y202352D01*
X625274Y201653D01*
X624917Y200963D01*
X624543Y200281D01*
X624152Y199609D01*
X623745Y198946D01*
X623321Y198294D01*
X622882Y197652D01*
X622428Y197021D01*
X621958Y196402D01*
X621473Y195794D01*
X620973Y195198D01*
X620459Y194615D01*
X619931Y194045D01*
X619388Y193487D01*
X618833Y192943D01*
X618264Y192413D01*
X617682Y191897D01*
X617088Y191395D01*
X616482Y190908D01*
X615864Y190436D01*
X615235Y189979D01*
X614595Y189538D01*
X613944Y189113D01*
X613283Y188703D01*
X612612Y188310D01*
X611932Y187934D01*
X611242Y187574D01*
X610544Y187231D01*
X609838Y186906D01*
X609124Y186598D01*
X608403Y186307D01*
X607675Y186034D01*
X606940Y185779D01*
X606200Y185542D01*
X605453Y185324D01*
X604702Y185124D01*
X603946Y184942D01*
X603186Y184778D01*
X602422Y184634D01*
X601654Y184508D01*
X600884Y184401D01*
X600112Y184313D01*
X599337Y184244D01*
X598561Y184193D01*
X597784Y184162D01*
X597007Y184150D01*
X596229Y184157D01*
X595452Y184183D01*
X594676Y184228D01*
X593901Y184292D01*
X593128Y184375D01*
X592357Y184477D01*
X591589Y184597D01*
X590824Y184737D01*
X590063Y184895D01*
X589305Y185072D01*
X588553Y185267D01*
X587805Y185481D01*
X587063Y185712D01*
X586326Y185962D01*
X585597Y186230D01*
X584873Y186516D01*
X584157Y186819D01*
X583449Y187140D01*
X582749Y187478D01*
X582057Y187833D01*
X581374Y188205D01*
X580701Y188594D01*
X580037Y188998D01*
X579383Y189419D01*
X578740Y189856D01*
X578107Y190309D01*
X577486Y190777D01*
X576877Y191260D01*
X576280Y191757D01*
X575695Y192270D01*
X575122Y192796D01*
X574563Y193336D01*
X574017Y193890D01*
X573485Y194457D01*
X572967Y195037D01*
X572463Y195629D01*
X571974Y196234D01*
X571500Y196850D01*
D10*
X571500Y215900D02*
X571508Y216523D01*
X571531Y217146D01*
X571569Y217769D01*
X571622Y218390D01*
X571691Y219009D01*
X571775Y219627D01*
X571874Y220242D01*
X571988Y220855D01*
X572117Y221465D01*
X572261Y222072D01*
X572420Y222675D01*
X572594Y223273D01*
X572782Y223868D01*
X572985Y224457D01*
X573202Y225041D01*
X573433Y225620D01*
X573679Y226193D01*
X573939Y226760D01*
X574212Y227320D01*
X574499Y227873D01*
X574800Y228420D01*
X575114Y228958D01*
X575441Y229489D01*
X575781Y230011D01*
X576133Y230526D01*
X576499Y231031D01*
X576876Y231527D01*
X577266Y232014D01*
X577667Y232491D01*
X578080Y232958D01*
X578504Y233414D01*
X578939Y233861D01*
X579386Y234296D01*
X579842Y234720D01*
X580309Y235133D01*
X580786Y235534D01*
X581273Y235924D01*
X581769Y236301D01*
X582274Y236667D01*
X582789Y237019D01*
X583311Y237359D01*
X583842Y237686D01*
X584380Y238000D01*
X584927Y238301D01*
X585480Y238588D01*
X586040Y238861D01*
X586607Y239121D01*
X587180Y239367D01*
X587759Y239598D01*
X588343Y239815D01*
X588932Y240018D01*
X589527Y240206D01*
X590125Y240380D01*
X590728Y240539D01*
X591335Y240683D01*
X591945Y240812D01*
X592558Y240926D01*
X593173Y241025D01*
X593791Y241109D01*
X594410Y241178D01*
X595031Y241231D01*
X595654Y241269D01*
X596277Y241292D01*
X596900Y241300D01*
X597523Y241292D01*
X598146Y241269D01*
X598769Y241231D01*
X599390Y241178D01*
X600009Y241109D01*
X600627Y241025D01*
X601242Y240926D01*
X601855Y240812D01*
X602465Y240683D01*
X603072Y240539D01*
X603675Y240380D01*
X604273Y240206D01*
X604868Y240018D01*
X605457Y239815D01*
X606041Y239598D01*
X606620Y239367D01*
X607193Y239121D01*
X607760Y238861D01*
X608320Y238588D01*
X608873Y238301D01*
X609420Y238000D01*
X609958Y237686D01*
X610489Y237359D01*
X611011Y237019D01*
X611526Y236667D01*
X612031Y236301D01*
X612527Y235924D01*
X613014Y235534D01*
X613491Y235133D01*
X613958Y234720D01*
X614414Y234296D01*
X614861Y233861D01*
X615296Y233414D01*
X615720Y232958D01*
X616133Y232491D01*
X616534Y232014D01*
X616924Y231527D01*
X617301Y231031D01*
X617667Y230526D01*
X618019Y230011D01*
X618359Y229489D01*
X618686Y228958D01*
X619000Y228420D01*
X619301Y227873D01*
X619588Y227320D01*
X619861Y226760D01*
X620121Y226193D01*
X620367Y225620D01*
X620598Y225041D01*
X620815Y224457D01*
X621018Y223868D01*
X621206Y223273D01*
X621380Y222675D01*
X621539Y222072D01*
X621683Y221465D01*
X621812Y220855D01*
X621926Y220242D01*
X622025Y219627D01*
X622109Y219009D01*
X622178Y218390D01*
X622231Y217769D01*
X622269Y217146D01*
X622292Y216523D01*
X622300Y215900D01*
X622292Y215277D01*
X622269Y214654D01*
X622231Y214031D01*
X622178Y213410D01*
X622109Y212791D01*
X622025Y212173D01*
X621926Y211558D01*
X621812Y210945D01*
X621683Y210335D01*
X621539Y209728D01*
X621380Y209125D01*
X621206Y208527D01*
X621018Y207932D01*
X620815Y207343D01*
X620598Y206759D01*
X620367Y206180D01*
X620121Y205607D01*
X619861Y205040D01*
X619588Y204480D01*
X619301Y203927D01*
X619000Y203380D01*
X618686Y202842D01*
X618359Y202311D01*
X618019Y201789D01*
X617667Y201274D01*
X617301Y200769D01*
X616924Y200273D01*
X616534Y199786D01*
X616133Y199309D01*
X615720Y198842D01*
X615296Y198386D01*
X614861Y197939D01*
X614414Y197504D01*
X613958Y197080D01*
X613491Y196667D01*
X613014Y196266D01*
X612527Y195876D01*
X612031Y195499D01*
X611526Y195133D01*
X611011Y194781D01*
X610489Y194441D01*
X609958Y194114D01*
X609420Y193800D01*
X608873Y193499D01*
X608320Y193212D01*
X607760Y192939D01*
X607193Y192679D01*
X606620Y192433D01*
X606041Y192202D01*
X605457Y191985D01*
X604868Y191782D01*
X604273Y191594D01*
X603675Y191420D01*
X603072Y191261D01*
X602465Y191117D01*
X601855Y190988D01*
X601242Y190874D01*
X600627Y190775D01*
X600009Y190691D01*
X599390Y190622D01*
X598769Y190569D01*
X598146Y190531D01*
X597523Y190508D01*
X596900Y190500D01*
X596277Y190508D01*
X595654Y190531D01*
X595031Y190569D01*
X594410Y190622D01*
X593791Y190691D01*
X593173Y190775D01*
X592558Y190874D01*
X591945Y190988D01*
X591335Y191117D01*
X590728Y191261D01*
X590125Y191420D01*
X589527Y191594D01*
X588932Y191782D01*
X588343Y191985D01*
X587759Y192202D01*
X587180Y192433D01*
X586607Y192679D01*
X586040Y192939D01*
X585480Y193212D01*
X584927Y193499D01*
X584380Y193800D01*
X583842Y194114D01*
X583311Y194441D01*
X582789Y194781D01*
X582274Y195133D01*
X581769Y195499D01*
X581273Y195876D01*
X580786Y196266D01*
X580309Y196667D01*
X579842Y197080D01*
X579386Y197504D01*
X578939Y197939D01*
X578504Y198386D01*
X578080Y198842D01*
X577667Y199309D01*
X577266Y199786D01*
X576876Y200273D01*
X576499Y200769D01*
X576133Y201274D01*
X575781Y201789D01*
X575441Y202311D01*
X575114Y202842D01*
X574800Y203380D01*
X574499Y203927D01*
X574212Y204480D01*
X573939Y205040D01*
X573679Y205607D01*
X573433Y206180D01*
X573202Y206759D01*
X572985Y207343D01*
X572782Y207932D01*
X572594Y208527D01*
X572420Y209125D01*
X572261Y209728D01*
X572117Y210335D01*
X571988Y210945D01*
X571874Y211558D01*
X571775Y212173D01*
X571691Y212791D01*
X571622Y213410D01*
X571569Y214031D01*
X571531Y214654D01*
X571508Y215277D01*
X571500Y215900D01*
D11*
X574400Y427300D02*
X492400Y427300D01*
X574400Y421800D02*
X580900Y421800D01*
X574400Y421800D02*
X574400Y427300D01*
X574400Y309800D02*
X574400Y304300D01*
X574400Y309800D02*
X580900Y309800D01*
X492400Y309800D02*
X485900Y309800D01*
X492400Y309800D02*
X492400Y304300D01*
X492400Y421800D02*
X492400Y427300D01*
X492400Y421800D02*
X485900Y421800D01*
X580900Y421800D02*
X580900Y394800D01*
X580900Y346800D02*
X580900Y309800D01*
X485900Y394800D02*
X485900Y421800D01*
X485900Y346800D02*
X485900Y309800D01*
X572400Y388800D02*
X571958Y389642D01*
X571495Y390474D01*
X571013Y391294D01*
X570512Y392102D01*
X569992Y392899D01*
X569453Y393683D01*
X568896Y394454D01*
X568320Y395212D01*
X567728Y395956D01*
X567117Y396686D01*
X566490Y397401D01*
X565846Y398101D01*
X565185Y398786D01*
X564509Y399455D01*
X563817Y400108D01*
X563109Y400744D01*
X562387Y401363D01*
X561651Y401966D01*
X560900Y402550D01*
X512900Y407300D02*
X511965Y406795D01*
X511043Y406267D01*
X510134Y405716D01*
X509239Y405145D01*
X508357Y404551D01*
X507491Y403937D01*
X506639Y403302D01*
X505803Y402646D01*
X504982Y401971D01*
X504179Y401276D01*
X503392Y400561D01*
X502623Y399829D01*
X501871Y399077D01*
X501139Y398308D01*
X500424Y397521D01*
X499729Y396718D01*
X499054Y395897D01*
X498398Y395061D01*
X497763Y394209D01*
X497149Y393343D01*
X496555Y392461D01*
X495984Y391566D01*
X495433Y390657D01*
X494905Y389735D01*
X494400Y388800D01*
X512900Y407300D02*
X550400Y407300D01*
X572400Y388800D02*
X572400Y347800D01*
X560900Y402550D02*
X560688Y402493D01*
X560474Y402441D01*
X560259Y402395D01*
X560044Y402354D01*
X559827Y402318D01*
X559609Y402288D01*
X559391Y402263D01*
X559173Y402243D01*
X558953Y402229D01*
X558734Y402220D01*
X558514Y402216D01*
X558295Y402218D01*
X558075Y402225D01*
X557856Y402238D01*
X557637Y402255D01*
X557419Y402279D01*
X557201Y402307D01*
X556984Y402341D01*
X556768Y402381D01*
X556553Y402425D01*
X556339Y402475D01*
X556126Y402530D01*
X555915Y402590D01*
X555705Y402655D01*
X555497Y402726D01*
X555291Y402802D01*
X555087Y402882D01*
X554885Y402968D01*
X554685Y403058D01*
X554487Y403154D01*
X554291Y403254D01*
X554098Y403359D01*
X553908Y403469D01*
X553721Y403583D01*
X553536Y403702D01*
X553354Y403825D01*
X553176Y403953D01*
X553000Y404085D01*
X552828Y404221D01*
X552659Y404362D01*
X552494Y404507D01*
X552332Y404655D01*
X552174Y404808D01*
X552020Y404964D01*
X551870Y405124D01*
X551724Y405288D01*
X551581Y405455D01*
X551443Y405626D01*
X551309Y405800D01*
X551180Y405977D01*
X551055Y406158D01*
X550934Y406341D01*
X550818Y406528D01*
X550706Y406717D01*
X550599Y406909D01*
X550497Y407103D01*
X550399Y407300D01*
X494400Y347800D02*
X494842Y346958D01*
X495305Y346126D01*
X495787Y345306D01*
X496288Y344498D01*
X496808Y343701D01*
X497347Y342917D01*
X497904Y342146D01*
X498480Y341388D01*
X499072Y340644D01*
X499683Y339914D01*
X500310Y339199D01*
X500954Y338499D01*
X501615Y337814D01*
X502291Y337145D01*
X502983Y336492D01*
X503691Y335856D01*
X504413Y335237D01*
X505149Y334634D01*
X505900Y334050D01*
X553900Y329300D02*
X554835Y329805D01*
X555757Y330333D01*
X556666Y330884D01*
X557561Y331455D01*
X558443Y332049D01*
X559309Y332663D01*
X560161Y333298D01*
X560997Y333954D01*
X561818Y334629D01*
X562621Y335324D01*
X563408Y336039D01*
X564177Y336771D01*
X564929Y337523D01*
X565661Y338292D01*
X566376Y339079D01*
X567071Y339882D01*
X567746Y340703D01*
X568402Y341539D01*
X569037Y342391D01*
X569651Y343257D01*
X570245Y344139D01*
X570816Y345034D01*
X571367Y345943D01*
X571895Y346865D01*
X572400Y347800D01*
X553900Y329300D02*
X516400Y329300D01*
X494400Y347800D02*
X494400Y388800D01*
X505900Y334050D02*
X506112Y334107D01*
X506326Y334159D01*
X506541Y334205D01*
X506756Y334246D01*
X506973Y334282D01*
X507191Y334312D01*
X507409Y334337D01*
X507627Y334357D01*
X507847Y334371D01*
X508066Y334380D01*
X508286Y334384D01*
X508505Y334382D01*
X508725Y334375D01*
X508944Y334362D01*
X509163Y334345D01*
X509381Y334321D01*
X509599Y334293D01*
X509816Y334259D01*
X510032Y334219D01*
X510247Y334175D01*
X510461Y334125D01*
X510674Y334070D01*
X510885Y334010D01*
X511095Y333945D01*
X511303Y333874D01*
X511509Y333798D01*
X511713Y333718D01*
X511915Y333632D01*
X512115Y333542D01*
X512313Y333446D01*
X512509Y333346D01*
X512702Y333241D01*
X512892Y333131D01*
X513079Y333017D01*
X513264Y332898D01*
X513446Y332775D01*
X513624Y332647D01*
X513800Y332515D01*
X513972Y332379D01*
X514141Y332238D01*
X514306Y332093D01*
X514468Y331945D01*
X514626Y331792D01*
X514780Y331636D01*
X514930Y331476D01*
X515076Y331312D01*
X515219Y331145D01*
X515357Y330974D01*
X515491Y330800D01*
X515620Y330623D01*
X515745Y330442D01*
X515866Y330259D01*
X515982Y330072D01*
X516094Y329883D01*
X516201Y329691D01*
X516303Y329497D01*
X516401Y329300D01*
D13*
X551900Y411300D02*
X551902Y411461D01*
X551908Y411621D01*
X551918Y411782D01*
X551932Y411942D01*
X551950Y412102D01*
X551971Y412261D01*
X551997Y412420D01*
X552027Y412578D01*
X552060Y412735D01*
X552098Y412892D01*
X552139Y413047D01*
X552184Y413201D01*
X552233Y413354D01*
X552286Y413506D01*
X552342Y413657D01*
X552403Y413806D01*
X552466Y413954D01*
X552534Y414100D01*
X552605Y414244D01*
X552679Y414386D01*
X552757Y414527D01*
X552839Y414665D01*
X552924Y414802D01*
X553012Y414936D01*
X553104Y415068D01*
X553199Y415198D01*
X553297Y415326D01*
X553398Y415451D01*
X553502Y415573D01*
X553609Y415693D01*
X553719Y415810D01*
X553832Y415925D01*
X553948Y416036D01*
X554067Y416145D01*
X554188Y416250D01*
X554312Y416353D01*
X554438Y416453D01*
X554566Y416549D01*
X554697Y416642D01*
X554831Y416732D01*
X554966Y416819D01*
X555104Y416902D01*
X555243Y416982D01*
X555385Y417058D01*
X555528Y417131D01*
X555673Y417200D01*
X555820Y417266D01*
X555968Y417328D01*
X556118Y417386D01*
X556269Y417441D01*
X556422Y417492D01*
X556576Y417539D01*
X556731Y417582D01*
X556887Y417621D01*
X557043Y417657D01*
X557201Y417688D01*
X557359Y417716D01*
X557518Y417740D01*
X557678Y417760D01*
X557838Y417776D01*
X557998Y417788D01*
X558159Y417796D01*
X558320Y417800D01*
X558480Y417800D01*
X558641Y417796D01*
X558802Y417788D01*
X558962Y417776D01*
X559122Y417760D01*
X559282Y417740D01*
X559441Y417716D01*
X559599Y417688D01*
X559757Y417657D01*
X559913Y417621D01*
X560069Y417582D01*
X560224Y417539D01*
X560378Y417492D01*
X560531Y417441D01*
X560682Y417386D01*
X560832Y417328D01*
X560980Y417266D01*
X561127Y417200D01*
X561272Y417131D01*
X561415Y417058D01*
X561557Y416982D01*
X561696Y416902D01*
X561834Y416819D01*
X561969Y416732D01*
X562103Y416642D01*
X562234Y416549D01*
X562362Y416453D01*
X562488Y416353D01*
X562612Y416250D01*
X562733Y416145D01*
X562852Y416036D01*
X562968Y415925D01*
X563081Y415810D01*
X563191Y415693D01*
X563298Y415573D01*
X563402Y415451D01*
X563503Y415326D01*
X563601Y415198D01*
X563696Y415068D01*
X563788Y414936D01*
X563876Y414802D01*
X563961Y414665D01*
X564043Y414527D01*
X564121Y414386D01*
X564195Y414244D01*
X564266Y414100D01*
X564334Y413954D01*
X564397Y413806D01*
X564458Y413657D01*
X564514Y413506D01*
X564567Y413354D01*
X564616Y413201D01*
X564661Y413047D01*
X564702Y412892D01*
X564740Y412735D01*
X564773Y412578D01*
X564803Y412420D01*
X564829Y412261D01*
X564850Y412102D01*
X564868Y411942D01*
X564882Y411782D01*
X564892Y411621D01*
X564898Y411461D01*
X564900Y411300D01*
X564898Y411139D01*
X564892Y410979D01*
X564882Y410818D01*
X564868Y410658D01*
X564850Y410498D01*
X564829Y410339D01*
X564803Y410180D01*
X564773Y410022D01*
X564740Y409865D01*
X564702Y409708D01*
X564661Y409553D01*
X564616Y409399D01*
X564567Y409246D01*
X564514Y409094D01*
X564458Y408943D01*
X564397Y408794D01*
X564334Y408646D01*
X564266Y408500D01*
X564195Y408356D01*
X564121Y408214D01*
X564043Y408073D01*
X563961Y407935D01*
X563876Y407798D01*
X563788Y407664D01*
X563696Y407532D01*
X563601Y407402D01*
X563503Y407274D01*
X563402Y407149D01*
X563298Y407027D01*
X563191Y406907D01*
X563081Y406790D01*
X562968Y406675D01*
X562852Y406564D01*
X562733Y406455D01*
X562612Y406350D01*
X562488Y406247D01*
X562362Y406147D01*
X562234Y406051D01*
X562103Y405958D01*
X561969Y405868D01*
X561834Y405781D01*
X561696Y405698D01*
X561557Y405618D01*
X561415Y405542D01*
X561272Y405469D01*
X561127Y405400D01*
X560980Y405334D01*
X560832Y405272D01*
X560682Y405214D01*
X560531Y405159D01*
X560378Y405108D01*
X560224Y405061D01*
X560069Y405018D01*
X559913Y404979D01*
X559757Y404943D01*
X559599Y404912D01*
X559441Y404884D01*
X559282Y404860D01*
X559122Y404840D01*
X558962Y404824D01*
X558802Y404812D01*
X558641Y404804D01*
X558480Y404800D01*
X558320Y404800D01*
X558159Y404804D01*
X557998Y404812D01*
X557838Y404824D01*
X557678Y404840D01*
X557518Y404860D01*
X557359Y404884D01*
X557201Y404912D01*
X557043Y404943D01*
X556887Y404979D01*
X556731Y405018D01*
X556576Y405061D01*
X556422Y405108D01*
X556269Y405159D01*
X556118Y405214D01*
X555968Y405272D01*
X555820Y405334D01*
X555673Y405400D01*
X555528Y405469D01*
X555385Y405542D01*
X555243Y405618D01*
X555104Y405698D01*
X554966Y405781D01*
X554831Y405868D01*
X554697Y405958D01*
X554566Y406051D01*
X554438Y406147D01*
X554312Y406247D01*
X554188Y406350D01*
X554067Y406455D01*
X553948Y406564D01*
X553832Y406675D01*
X553719Y406790D01*
X553609Y406907D01*
X553502Y407027D01*
X553398Y407149D01*
X553297Y407274D01*
X553199Y407402D01*
X553104Y407532D01*
X553012Y407664D01*
X552924Y407798D01*
X552839Y407935D01*
X552757Y408073D01*
X552679Y408214D01*
X552605Y408356D01*
X552534Y408500D01*
X552466Y408646D01*
X552403Y408794D01*
X552342Y408943D01*
X552286Y409094D01*
X552233Y409246D01*
X552184Y409399D01*
X552139Y409553D01*
X552098Y409708D01*
X552060Y409865D01*
X552027Y410022D01*
X551997Y410180D01*
X551971Y410339D01*
X551950Y410498D01*
X551932Y410658D01*
X551918Y410818D01*
X551908Y410979D01*
X551902Y411139D01*
X551900Y411300D01*
D11*
X497650Y368300D02*
X497661Y369177D01*
X497693Y370054D01*
X497747Y370930D01*
X497822Y371804D01*
X497919Y372676D01*
X498037Y373546D01*
X498176Y374412D01*
X498337Y375274D01*
X498519Y376133D01*
X498721Y376987D01*
X498945Y377835D01*
X499189Y378678D01*
X499454Y379514D01*
X499740Y380344D01*
X500046Y381166D01*
X500371Y381981D01*
X500717Y382787D01*
X501082Y383585D01*
X501467Y384374D01*
X501871Y385152D01*
X502294Y385921D01*
X502736Y386679D01*
X503196Y387426D01*
X503675Y388162D01*
X504171Y388885D01*
X504685Y389596D01*
X505217Y390295D01*
X505765Y390980D01*
X506330Y391651D01*
X506911Y392308D01*
X507508Y392951D01*
X508121Y393579D01*
X508749Y394192D01*
X509392Y394789D01*
X510049Y395370D01*
X510720Y395935D01*
X511405Y396483D01*
X512104Y397015D01*
X512815Y397529D01*
X513538Y398025D01*
X514274Y398504D01*
X515021Y398964D01*
X515779Y399406D01*
X516548Y399829D01*
X517326Y400233D01*
X518115Y400618D01*
X518913Y400983D01*
X519719Y401329D01*
X520534Y401654D01*
X521356Y401960D01*
X522186Y402246D01*
X523022Y402511D01*
X523865Y402755D01*
X524713Y402979D01*
X525567Y403181D01*
X526426Y403363D01*
X527288Y403524D01*
X528154Y403663D01*
X529024Y403781D01*
X529896Y403878D01*
X530770Y403953D01*
X531646Y404007D01*
X532523Y404039D01*
X533400Y404050D01*
X534277Y404039D01*
X535154Y404007D01*
X536030Y403953D01*
X536904Y403878D01*
X537776Y403781D01*
X538646Y403663D01*
X539512Y403524D01*
X540374Y403363D01*
X541233Y403181D01*
X542087Y402979D01*
X542935Y402755D01*
X543778Y402511D01*
X544614Y402246D01*
X545444Y401960D01*
X546266Y401654D01*
X547081Y401329D01*
X547887Y400983D01*
X548685Y400618D01*
X549474Y400233D01*
X550252Y399829D01*
X551021Y399406D01*
X551779Y398964D01*
X552526Y398504D01*
X553262Y398025D01*
X553985Y397529D01*
X554696Y397015D01*
X555395Y396483D01*
X556080Y395935D01*
X556751Y395370D01*
X557408Y394789D01*
X558051Y394192D01*
X558679Y393579D01*
X559292Y392951D01*
X559889Y392308D01*
X560470Y391651D01*
X561035Y390980D01*
X561583Y390295D01*
X562115Y389596D01*
X562629Y388885D01*
X563125Y388162D01*
X563604Y387426D01*
X564064Y386679D01*
X564506Y385921D01*
X564929Y385152D01*
X565333Y384374D01*
X565718Y383585D01*
X566083Y382787D01*
X566429Y381981D01*
X566754Y381166D01*
X567060Y380344D01*
X567346Y379514D01*
X567611Y378678D01*
X567855Y377835D01*
X568079Y376987D01*
X568281Y376133D01*
X568463Y375274D01*
X568624Y374412D01*
X568763Y373546D01*
X568881Y372676D01*
X568978Y371804D01*
X569053Y370930D01*
X569107Y370054D01*
X569139Y369177D01*
X569150Y368300D01*
X569139Y367423D01*
X569107Y366546D01*
X569053Y365670D01*
X568978Y364796D01*
X568881Y363924D01*
X568763Y363054D01*
X568624Y362188D01*
X568463Y361326D01*
X568281Y360467D01*
X568079Y359613D01*
X567855Y358765D01*
X567611Y357922D01*
X567346Y357086D01*
X567060Y356256D01*
X566754Y355434D01*
X566429Y354619D01*
X566083Y353813D01*
X565718Y353015D01*
X565333Y352226D01*
X564929Y351448D01*
X564506Y350679D01*
X564064Y349921D01*
X563604Y349174D01*
X563125Y348438D01*
X562629Y347715D01*
X562115Y347004D01*
X561583Y346305D01*
X561035Y345620D01*
X560470Y344949D01*
X559889Y344292D01*
X559292Y343649D01*
X558679Y343021D01*
X558051Y342408D01*
X557408Y341811D01*
X556751Y341230D01*
X556080Y340665D01*
X555395Y340117D01*
X554696Y339585D01*
X553985Y339071D01*
X553262Y338575D01*
X552526Y338096D01*
X551779Y337636D01*
X551021Y337194D01*
X550252Y336771D01*
X549474Y336367D01*
X548685Y335982D01*
X547887Y335617D01*
X547081Y335271D01*
X546266Y334946D01*
X545444Y334640D01*
X544614Y334354D01*
X543778Y334089D01*
X542935Y333845D01*
X542087Y333621D01*
X541233Y333419D01*
X540374Y333237D01*
X539512Y333076D01*
X538646Y332937D01*
X537776Y332819D01*
X536904Y332722D01*
X536030Y332647D01*
X535154Y332593D01*
X534277Y332561D01*
X533400Y332550D01*
X532523Y332561D01*
X531646Y332593D01*
X530770Y332647D01*
X529896Y332722D01*
X529024Y332819D01*
X528154Y332937D01*
X527288Y333076D01*
X526426Y333237D01*
X525567Y333419D01*
X524713Y333621D01*
X523865Y333845D01*
X523022Y334089D01*
X522186Y334354D01*
X521356Y334640D01*
X520534Y334946D01*
X519719Y335271D01*
X518913Y335617D01*
X518115Y335982D01*
X517326Y336367D01*
X516548Y336771D01*
X515779Y337194D01*
X515021Y337636D01*
X514274Y338096D01*
X513538Y338575D01*
X512815Y339071D01*
X512104Y339585D01*
X511405Y340117D01*
X510720Y340665D01*
X510049Y341230D01*
X509392Y341811D01*
X508749Y342408D01*
X508121Y343021D01*
X507508Y343649D01*
X506911Y344292D01*
X506330Y344949D01*
X505765Y345620D01*
X505217Y346305D01*
X504685Y347004D01*
X504171Y347715D01*
X503675Y348438D01*
X503196Y349174D01*
X502736Y349921D01*
X502294Y350679D01*
X501871Y351448D01*
X501467Y352226D01*
X501082Y353015D01*
X500717Y353813D01*
X500371Y354619D01*
X500046Y355434D01*
X499740Y356256D01*
X499454Y357086D01*
X499189Y357922D01*
X498945Y358765D01*
X498721Y359613D01*
X498519Y360467D01*
X498337Y361326D01*
X498176Y362188D01*
X498037Y363054D01*
X497919Y363924D01*
X497822Y364796D01*
X497747Y365670D01*
X497693Y366546D01*
X497661Y367423D01*
X497650Y368300D01*
X505400Y368300D02*
X505408Y368987D01*
X505434Y369674D01*
X505476Y370360D01*
X505535Y371044D01*
X505611Y371727D01*
X505703Y372408D01*
X505812Y373087D01*
X505938Y373763D01*
X506080Y374435D01*
X506239Y375103D01*
X506414Y375768D01*
X506606Y376428D01*
X506813Y377083D01*
X507037Y377733D01*
X507276Y378377D01*
X507531Y379015D01*
X507802Y379647D01*
X508088Y380272D01*
X508390Y380889D01*
X508706Y381499D01*
X509038Y382101D01*
X509384Y382695D01*
X509744Y383280D01*
X510119Y383856D01*
X510508Y384423D01*
X510910Y384980D01*
X511326Y385526D01*
X511756Y386063D01*
X512198Y386589D01*
X512653Y387104D01*
X513121Y387607D01*
X513601Y388099D01*
X514093Y388579D01*
X514596Y389047D01*
X515111Y389502D01*
X515637Y389944D01*
X516174Y390374D01*
X516720Y390790D01*
X517277Y391192D01*
X517844Y391581D01*
X518420Y391956D01*
X519005Y392316D01*
X519599Y392662D01*
X520201Y392994D01*
X520811Y393310D01*
X521428Y393612D01*
X522053Y393898D01*
X522685Y394169D01*
X523323Y394424D01*
X523967Y394663D01*
X524617Y394887D01*
X525272Y395094D01*
X525932Y395286D01*
X526597Y395461D01*
X527265Y395620D01*
X527937Y395762D01*
X528613Y395888D01*
X529292Y395997D01*
X529973Y396089D01*
X530656Y396165D01*
X531340Y396224D01*
X532026Y396266D01*
X532713Y396292D01*
X533400Y396300D01*
X534087Y396292D01*
X534774Y396266D01*
X535460Y396224D01*
X536144Y396165D01*
X536827Y396089D01*
X537508Y395997D01*
X538187Y395888D01*
X538863Y395762D01*
X539535Y395620D01*
X540203Y395461D01*
X540868Y395286D01*
X541528Y395094D01*
X542183Y394887D01*
X542833Y394663D01*
X543477Y394424D01*
X544115Y394169D01*
X544747Y393898D01*
X545372Y393612D01*
X545989Y393310D01*
X546599Y392994D01*
X547201Y392662D01*
X547795Y392316D01*
X548380Y391956D01*
X548956Y391581D01*
X549523Y391192D01*
X550080Y390790D01*
X550626Y390374D01*
X551163Y389944D01*
X551689Y389502D01*
X552204Y389047D01*
X552707Y388579D01*
X553199Y388099D01*
X553679Y387607D01*
X554147Y387104D01*
X554602Y386589D01*
X555044Y386063D01*
X555474Y385526D01*
X555890Y384980D01*
X556292Y384423D01*
X556681Y383856D01*
X557056Y383280D01*
X557416Y382695D01*
X557762Y382101D01*
X558094Y381499D01*
X558410Y380889D01*
X558712Y380272D01*
X558998Y379647D01*
X559269Y379015D01*
X559524Y378377D01*
X559763Y377733D01*
X559987Y377083D01*
X560194Y376428D01*
X560386Y375768D01*
X560561Y375103D01*
X560720Y374435D01*
X560862Y373763D01*
X560988Y373087D01*
X561097Y372408D01*
X561189Y371727D01*
X561265Y371044D01*
X561324Y370360D01*
X561366Y369674D01*
X561392Y368987D01*
X561400Y368300D01*
X561392Y367613D01*
X561366Y366926D01*
X561324Y366240D01*
X561265Y365556D01*
X561189Y364873D01*
X561097Y364192D01*
X560988Y363513D01*
X560862Y362837D01*
X560720Y362165D01*
X560561Y361497D01*
X560386Y360832D01*
X560194Y360172D01*
X559987Y359517D01*
X559763Y358867D01*
X559524Y358223D01*
X559269Y357585D01*
X558998Y356953D01*
X558712Y356328D01*
X558410Y355711D01*
X558094Y355101D01*
X557762Y354499D01*
X557416Y353905D01*
X557056Y353320D01*
X556681Y352744D01*
X556292Y352177D01*
X555890Y351620D01*
X555474Y351074D01*
X555044Y350537D01*
X554602Y350011D01*
X554147Y349496D01*
X553679Y348993D01*
X553199Y348501D01*
X552707Y348021D01*
X552204Y347553D01*
X551689Y347098D01*
X551163Y346656D01*
X550626Y346226D01*
X550080Y345810D01*
X549523Y345408D01*
X548956Y345019D01*
X548380Y344644D01*
X547795Y344284D01*
X547201Y343938D01*
X546599Y343606D01*
X545989Y343290D01*
X545372Y342988D01*
X544747Y342702D01*
X544115Y342431D01*
X543477Y342176D01*
X542833Y341937D01*
X542183Y341713D01*
X541528Y341506D01*
X540868Y341314D01*
X540203Y341139D01*
X539535Y340980D01*
X538863Y340838D01*
X538187Y340712D01*
X537508Y340603D01*
X536827Y340511D01*
X536144Y340435D01*
X535460Y340376D01*
X534774Y340334D01*
X534087Y340308D01*
X533400Y340300D01*
X532713Y340308D01*
X532026Y340334D01*
X531340Y340376D01*
X530656Y340435D01*
X529973Y340511D01*
X529292Y340603D01*
X528613Y340712D01*
X527937Y340838D01*
X527265Y340980D01*
X526597Y341139D01*
X525932Y341314D01*
X525272Y341506D01*
X524617Y341713D01*
X523967Y341937D01*
X523323Y342176D01*
X522685Y342431D01*
X522053Y342702D01*
X521428Y342988D01*
X520811Y343290D01*
X520201Y343606D01*
X519599Y343938D01*
X519005Y344284D01*
X518420Y344644D01*
X517844Y345019D01*
X517277Y345408D01*
X516720Y345810D01*
X516174Y346226D01*
X515637Y346656D01*
X515111Y347098D01*
X514596Y347553D01*
X514093Y348021D01*
X513601Y348501D01*
X513121Y348993D01*
X512653Y349496D01*
X512198Y350011D01*
X511756Y350537D01*
X511326Y351074D01*
X510910Y351620D01*
X510508Y352177D01*
X510119Y352744D01*
X509744Y353320D01*
X509384Y353905D01*
X509038Y354499D01*
X508706Y355101D01*
X508390Y355711D01*
X508088Y356328D01*
X507802Y356953D01*
X507531Y357585D01*
X507276Y358223D01*
X507037Y358867D01*
X506813Y359517D01*
X506606Y360172D01*
X506414Y360832D01*
X506239Y361497D01*
X506080Y362165D01*
X505938Y362837D01*
X505812Y363513D01*
X505703Y364192D01*
X505611Y364873D01*
X505535Y365556D01*
X505476Y366240D01*
X505434Y366926D01*
X505408Y367613D01*
X505400Y368300D01*
D13*
X501900Y325300D02*
X501902Y325461D01*
X501908Y325621D01*
X501918Y325782D01*
X501932Y325942D01*
X501950Y326102D01*
X501971Y326261D01*
X501997Y326420D01*
X502027Y326578D01*
X502060Y326735D01*
X502098Y326892D01*
X502139Y327047D01*
X502184Y327201D01*
X502233Y327354D01*
X502286Y327506D01*
X502342Y327657D01*
X502403Y327806D01*
X502466Y327954D01*
X502534Y328100D01*
X502605Y328244D01*
X502679Y328386D01*
X502757Y328527D01*
X502839Y328665D01*
X502924Y328802D01*
X503012Y328936D01*
X503104Y329068D01*
X503199Y329198D01*
X503297Y329326D01*
X503398Y329451D01*
X503502Y329573D01*
X503609Y329693D01*
X503719Y329810D01*
X503832Y329925D01*
X503948Y330036D01*
X504067Y330145D01*
X504188Y330250D01*
X504312Y330353D01*
X504438Y330453D01*
X504566Y330549D01*
X504697Y330642D01*
X504831Y330732D01*
X504966Y330819D01*
X505104Y330902D01*
X505243Y330982D01*
X505385Y331058D01*
X505528Y331131D01*
X505673Y331200D01*
X505820Y331266D01*
X505968Y331328D01*
X506118Y331386D01*
X506269Y331441D01*
X506422Y331492D01*
X506576Y331539D01*
X506731Y331582D01*
X506887Y331621D01*
X507043Y331657D01*
X507201Y331688D01*
X507359Y331716D01*
X507518Y331740D01*
X507678Y331760D01*
X507838Y331776D01*
X507998Y331788D01*
X508159Y331796D01*
X508320Y331800D01*
X508480Y331800D01*
X508641Y331796D01*
X508802Y331788D01*
X508962Y331776D01*
X509122Y331760D01*
X509282Y331740D01*
X509441Y331716D01*
X509599Y331688D01*
X509757Y331657D01*
X509913Y331621D01*
X510069Y331582D01*
X510224Y331539D01*
X510378Y331492D01*
X510531Y331441D01*
X510682Y331386D01*
X510832Y331328D01*
X510980Y331266D01*
X511127Y331200D01*
X511272Y331131D01*
X511415Y331058D01*
X511557Y330982D01*
X511696Y330902D01*
X511834Y330819D01*
X511969Y330732D01*
X512103Y330642D01*
X512234Y330549D01*
X512362Y330453D01*
X512488Y330353D01*
X512612Y330250D01*
X512733Y330145D01*
X512852Y330036D01*
X512968Y329925D01*
X513081Y329810D01*
X513191Y329693D01*
X513298Y329573D01*
X513402Y329451D01*
X513503Y329326D01*
X513601Y329198D01*
X513696Y329068D01*
X513788Y328936D01*
X513876Y328802D01*
X513961Y328665D01*
X514043Y328527D01*
X514121Y328386D01*
X514195Y328244D01*
X514266Y328100D01*
X514334Y327954D01*
X514397Y327806D01*
X514458Y327657D01*
X514514Y327506D01*
X514567Y327354D01*
X514616Y327201D01*
X514661Y327047D01*
X514702Y326892D01*
X514740Y326735D01*
X514773Y326578D01*
X514803Y326420D01*
X514829Y326261D01*
X514850Y326102D01*
X514868Y325942D01*
X514882Y325782D01*
X514892Y325621D01*
X514898Y325461D01*
X514900Y325300D01*
X514898Y325139D01*
X514892Y324979D01*
X514882Y324818D01*
X514868Y324658D01*
X514850Y324498D01*
X514829Y324339D01*
X514803Y324180D01*
X514773Y324022D01*
X514740Y323865D01*
X514702Y323708D01*
X514661Y323553D01*
X514616Y323399D01*
X514567Y323246D01*
X514514Y323094D01*
X514458Y322943D01*
X514397Y322794D01*
X514334Y322646D01*
X514266Y322500D01*
X514195Y322356D01*
X514121Y322214D01*
X514043Y322073D01*
X513961Y321935D01*
X513876Y321798D01*
X513788Y321664D01*
X513696Y321532D01*
X513601Y321402D01*
X513503Y321274D01*
X513402Y321149D01*
X513298Y321027D01*
X513191Y320907D01*
X513081Y320790D01*
X512968Y320675D01*
X512852Y320564D01*
X512733Y320455D01*
X512612Y320350D01*
X512488Y320247D01*
X512362Y320147D01*
X512234Y320051D01*
X512103Y319958D01*
X511969Y319868D01*
X511834Y319781D01*
X511696Y319698D01*
X511557Y319618D01*
X511415Y319542D01*
X511272Y319469D01*
X511127Y319400D01*
X510980Y319334D01*
X510832Y319272D01*
X510682Y319214D01*
X510531Y319159D01*
X510378Y319108D01*
X510224Y319061D01*
X510069Y319018D01*
X509913Y318979D01*
X509757Y318943D01*
X509599Y318912D01*
X509441Y318884D01*
X509282Y318860D01*
X509122Y318840D01*
X508962Y318824D01*
X508802Y318812D01*
X508641Y318804D01*
X508480Y318800D01*
X508320Y318800D01*
X508159Y318804D01*
X507998Y318812D01*
X507838Y318824D01*
X507678Y318840D01*
X507518Y318860D01*
X507359Y318884D01*
X507201Y318912D01*
X507043Y318943D01*
X506887Y318979D01*
X506731Y319018D01*
X506576Y319061D01*
X506422Y319108D01*
X506269Y319159D01*
X506118Y319214D01*
X505968Y319272D01*
X505820Y319334D01*
X505673Y319400D01*
X505528Y319469D01*
X505385Y319542D01*
X505243Y319618D01*
X505104Y319698D01*
X504966Y319781D01*
X504831Y319868D01*
X504697Y319958D01*
X504566Y320051D01*
X504438Y320147D01*
X504312Y320247D01*
X504188Y320350D01*
X504067Y320455D01*
X503948Y320564D01*
X503832Y320675D01*
X503719Y320790D01*
X503609Y320907D01*
X503502Y321027D01*
X503398Y321149D01*
X503297Y321274D01*
X503199Y321402D01*
X503104Y321532D01*
X503012Y321664D01*
X502924Y321798D01*
X502839Y321935D01*
X502757Y322073D01*
X502679Y322214D01*
X502605Y322356D01*
X502534Y322500D01*
X502466Y322646D01*
X502403Y322794D01*
X502342Y322943D01*
X502286Y323094D01*
X502233Y323246D01*
X502184Y323399D01*
X502139Y323553D01*
X502098Y323708D01*
X502060Y323865D01*
X502027Y324022D01*
X501997Y324180D01*
X501971Y324339D01*
X501950Y324498D01*
X501932Y324658D01*
X501918Y324818D01*
X501908Y324979D01*
X501902Y325139D01*
X501900Y325300D01*
D11*
X193400Y427300D02*
X111400Y427300D01*
X193400Y421800D02*
X199900Y421800D01*
X193400Y421800D02*
X193400Y427300D01*
X193400Y309800D02*
X193400Y304300D01*
X193400Y309800D02*
X199900Y309800D01*
X111400Y309800D02*
X104900Y309800D01*
X111400Y309800D02*
X111400Y304300D01*
X111400Y421800D02*
X111400Y427300D01*
X111400Y421800D02*
X104900Y421800D01*
X199900Y421800D02*
X199900Y394800D01*
X199900Y346800D02*
X199900Y309800D01*
X104900Y394800D02*
X104900Y421800D01*
X104900Y346800D02*
X104900Y309800D01*
X191400Y388800D02*
X190958Y389642D01*
X190495Y390474D01*
X190013Y391294D01*
X189512Y392102D01*
X188992Y392899D01*
X188453Y393683D01*
X187896Y394454D01*
X187320Y395212D01*
X186728Y395956D01*
X186117Y396686D01*
X185490Y397401D01*
X184846Y398101D01*
X184185Y398786D01*
X183509Y399455D01*
X182817Y400108D01*
X182109Y400744D01*
X181387Y401363D01*
X180651Y401966D01*
X179900Y402550D01*
X131900Y407300D02*
X130965Y406795D01*
X130043Y406267D01*
X129134Y405716D01*
X128239Y405145D01*
X127357Y404551D01*
X126491Y403937D01*
X125639Y403302D01*
X124803Y402646D01*
X123982Y401971D01*
X123179Y401276D01*
X122392Y400561D01*
X121623Y399829D01*
X120871Y399077D01*
X120139Y398308D01*
X119424Y397521D01*
X118729Y396718D01*
X118054Y395897D01*
X117398Y395061D01*
X116763Y394209D01*
X116149Y393343D01*
X115555Y392461D01*
X114984Y391566D01*
X114433Y390657D01*
X113905Y389735D01*
X113400Y388800D01*
X131900Y407300D02*
X169400Y407300D01*
X191400Y388800D02*
X191400Y347800D01*
X179900Y402550D02*
X179688Y402493D01*
X179474Y402441D01*
X179259Y402395D01*
X179044Y402354D01*
X178827Y402318D01*
X178609Y402288D01*
X178391Y402263D01*
X178173Y402243D01*
X177953Y402229D01*
X177734Y402220D01*
X177514Y402216D01*
X177295Y402218D01*
X177075Y402225D01*
X176856Y402238D01*
X176637Y402255D01*
X176419Y402279D01*
X176201Y402307D01*
X175984Y402341D01*
X175768Y402381D01*
X175553Y402425D01*
X175339Y402475D01*
X175126Y402530D01*
X174915Y402590D01*
X174705Y402655D01*
X174497Y402726D01*
X174291Y402802D01*
X174087Y402882D01*
X173885Y402968D01*
X173685Y403058D01*
X173487Y403154D01*
X173291Y403254D01*
X173098Y403359D01*
X172908Y403469D01*
X172721Y403583D01*
X172536Y403702D01*
X172354Y403825D01*
X172176Y403953D01*
X172000Y404085D01*
X171828Y404221D01*
X171659Y404362D01*
X171494Y404507D01*
X171332Y404655D01*
X171174Y404808D01*
X171020Y404964D01*
X170870Y405124D01*
X170724Y405288D01*
X170581Y405455D01*
X170443Y405626D01*
X170309Y405800D01*
X170180Y405977D01*
X170055Y406158D01*
X169934Y406341D01*
X169818Y406528D01*
X169706Y406717D01*
X169599Y406909D01*
X169497Y407103D01*
X169399Y407300D01*
X113400Y347800D02*
X113842Y346958D01*
X114305Y346126D01*
X114787Y345306D01*
X115288Y344498D01*
X115808Y343701D01*
X116347Y342917D01*
X116904Y342146D01*
X117480Y341388D01*
X118072Y340644D01*
X118683Y339914D01*
X119310Y339199D01*
X119954Y338499D01*
X120615Y337814D01*
X121291Y337145D01*
X121983Y336492D01*
X122691Y335856D01*
X123413Y335237D01*
X124149Y334634D01*
X124900Y334050D01*
X172900Y329300D02*
X173835Y329805D01*
X174757Y330333D01*
X175666Y330884D01*
X176561Y331455D01*
X177443Y332049D01*
X178309Y332663D01*
X179161Y333298D01*
X179997Y333954D01*
X180818Y334629D01*
X181621Y335324D01*
X182408Y336039D01*
X183177Y336771D01*
X183929Y337523D01*
X184661Y338292D01*
X185376Y339079D01*
X186071Y339882D01*
X186746Y340703D01*
X187402Y341539D01*
X188037Y342391D01*
X188651Y343257D01*
X189245Y344139D01*
X189816Y345034D01*
X190367Y345943D01*
X190895Y346865D01*
X191400Y347800D01*
X172900Y329300D02*
X135400Y329300D01*
X113400Y347800D02*
X113400Y388800D01*
X124900Y334050D02*
X125112Y334107D01*
X125326Y334159D01*
X125541Y334205D01*
X125756Y334246D01*
X125973Y334282D01*
X126191Y334312D01*
X126409Y334337D01*
X126627Y334357D01*
X126847Y334371D01*
X127066Y334380D01*
X127286Y334384D01*
X127505Y334382D01*
X127725Y334375D01*
X127944Y334362D01*
X128163Y334345D01*
X128381Y334321D01*
X128599Y334293D01*
X128816Y334259D01*
X129032Y334219D01*
X129247Y334175D01*
X129461Y334125D01*
X129674Y334070D01*
X129885Y334010D01*
X130095Y333945D01*
X130303Y333874D01*
X130509Y333798D01*
X130713Y333718D01*
X130915Y333632D01*
X131115Y333542D01*
X131313Y333446D01*
X131509Y333346D01*
X131702Y333241D01*
X131892Y333131D01*
X132079Y333017D01*
X132264Y332898D01*
X132446Y332775D01*
X132624Y332647D01*
X132800Y332515D01*
X132972Y332379D01*
X133141Y332238D01*
X133306Y332093D01*
X133468Y331945D01*
X133626Y331792D01*
X133780Y331636D01*
X133930Y331476D01*
X134076Y331312D01*
X134219Y331145D01*
X134357Y330974D01*
X134491Y330800D01*
X134620Y330623D01*
X134745Y330442D01*
X134866Y330259D01*
X134982Y330072D01*
X135094Y329883D01*
X135201Y329691D01*
X135303Y329497D01*
X135401Y329300D01*
D13*
X170900Y411300D02*
X170902Y411461D01*
X170908Y411621D01*
X170918Y411782D01*
X170932Y411942D01*
X170950Y412102D01*
X170971Y412261D01*
X170997Y412420D01*
X171027Y412578D01*
X171060Y412735D01*
X171098Y412892D01*
X171139Y413047D01*
X171184Y413201D01*
X171233Y413354D01*
X171286Y413506D01*
X171342Y413657D01*
X171403Y413806D01*
X171466Y413954D01*
X171534Y414100D01*
X171605Y414244D01*
X171679Y414386D01*
X171757Y414527D01*
X171839Y414665D01*
X171924Y414802D01*
X172012Y414936D01*
X172104Y415068D01*
X172199Y415198D01*
X172297Y415326D01*
X172398Y415451D01*
X172502Y415573D01*
X172609Y415693D01*
X172719Y415810D01*
X172832Y415925D01*
X172948Y416036D01*
X173067Y416145D01*
X173188Y416250D01*
X173312Y416353D01*
X173438Y416453D01*
X173566Y416549D01*
X173697Y416642D01*
X173831Y416732D01*
X173966Y416819D01*
X174104Y416902D01*
X174243Y416982D01*
X174385Y417058D01*
X174528Y417131D01*
X174673Y417200D01*
X174820Y417266D01*
X174968Y417328D01*
X175118Y417386D01*
X175269Y417441D01*
X175422Y417492D01*
X175576Y417539D01*
X175731Y417582D01*
X175887Y417621D01*
X176043Y417657D01*
X176201Y417688D01*
X176359Y417716D01*
X176518Y417740D01*
X176678Y417760D01*
X176838Y417776D01*
X176998Y417788D01*
X177159Y417796D01*
X177320Y417800D01*
X177480Y417800D01*
X177641Y417796D01*
X177802Y417788D01*
X177962Y417776D01*
X178122Y417760D01*
X178282Y417740D01*
X178441Y417716D01*
X178599Y417688D01*
X178757Y417657D01*
X178913Y417621D01*
X179069Y417582D01*
X179224Y417539D01*
X179378Y417492D01*
X179531Y417441D01*
X179682Y417386D01*
X179832Y417328D01*
X179980Y417266D01*
X180127Y417200D01*
X180272Y417131D01*
X180415Y417058D01*
X180557Y416982D01*
X180696Y416902D01*
X180834Y416819D01*
X180969Y416732D01*
X181103Y416642D01*
X181234Y416549D01*
X181362Y416453D01*
X181488Y416353D01*
X181612Y416250D01*
X181733Y416145D01*
X181852Y416036D01*
X181968Y415925D01*
X182081Y415810D01*
X182191Y415693D01*
X182298Y415573D01*
X182402Y415451D01*
X182503Y415326D01*
X182601Y415198D01*
X182696Y415068D01*
X182788Y414936D01*
X182876Y414802D01*
X182961Y414665D01*
X183043Y414527D01*
X183121Y414386D01*
X183195Y414244D01*
X183266Y414100D01*
X183334Y413954D01*
X183397Y413806D01*
X183458Y413657D01*
X183514Y413506D01*
X183567Y413354D01*
X183616Y413201D01*
X183661Y413047D01*
X183702Y412892D01*
X183740Y412735D01*
X183773Y412578D01*
X183803Y412420D01*
X183829Y412261D01*
X183850Y412102D01*
X183868Y411942D01*
X183882Y411782D01*
X183892Y411621D01*
X183898Y411461D01*
X183900Y411300D01*
X183898Y411139D01*
X183892Y410979D01*
X183882Y410818D01*
X183868Y410658D01*
X183850Y410498D01*
X183829Y410339D01*
X183803Y410180D01*
X183773Y410022D01*
X183740Y409865D01*
X183702Y409708D01*
X183661Y409553D01*
X183616Y409399D01*
X183567Y409246D01*
X183514Y409094D01*
X183458Y408943D01*
X183397Y408794D01*
X183334Y408646D01*
X183266Y408500D01*
X183195Y408356D01*
X183121Y408214D01*
X183043Y408073D01*
X182961Y407935D01*
X182876Y407798D01*
X182788Y407664D01*
X182696Y407532D01*
X182601Y407402D01*
X182503Y407274D01*
X182402Y407149D01*
X182298Y407027D01*
X182191Y406907D01*
X182081Y406790D01*
X181968Y406675D01*
X181852Y406564D01*
X181733Y406455D01*
X181612Y406350D01*
X181488Y406247D01*
X181362Y406147D01*
X181234Y406051D01*
X181103Y405958D01*
X180969Y405868D01*
X180834Y405781D01*
X180696Y405698D01*
X180557Y405618D01*
X180415Y405542D01*
X180272Y405469D01*
X180127Y405400D01*
X179980Y405334D01*
X179832Y405272D01*
X179682Y405214D01*
X179531Y405159D01*
X179378Y405108D01*
X179224Y405061D01*
X179069Y405018D01*
X178913Y404979D01*
X178757Y404943D01*
X178599Y404912D01*
X178441Y404884D01*
X178282Y404860D01*
X178122Y404840D01*
X177962Y404824D01*
X177802Y404812D01*
X177641Y404804D01*
X177480Y404800D01*
X177320Y404800D01*
X177159Y404804D01*
X176998Y404812D01*
X176838Y404824D01*
X176678Y404840D01*
X176518Y404860D01*
X176359Y404884D01*
X176201Y404912D01*
X176043Y404943D01*
X175887Y404979D01*
X175731Y405018D01*
X175576Y405061D01*
X175422Y405108D01*
X175269Y405159D01*
X175118Y405214D01*
X174968Y405272D01*
X174820Y405334D01*
X174673Y405400D01*
X174528Y405469D01*
X174385Y405542D01*
X174243Y405618D01*
X174104Y405698D01*
X173966Y405781D01*
X173831Y405868D01*
X173697Y405958D01*
X173566Y406051D01*
X173438Y406147D01*
X173312Y406247D01*
X173188Y406350D01*
X173067Y406455D01*
X172948Y406564D01*
X172832Y406675D01*
X172719Y406790D01*
X172609Y406907D01*
X172502Y407027D01*
X172398Y407149D01*
X172297Y407274D01*
X172199Y407402D01*
X172104Y407532D01*
X172012Y407664D01*
X171924Y407798D01*
X171839Y407935D01*
X171757Y408073D01*
X171679Y408214D01*
X171605Y408356D01*
X171534Y408500D01*
X171466Y408646D01*
X171403Y408794D01*
X171342Y408943D01*
X171286Y409094D01*
X171233Y409246D01*
X171184Y409399D01*
X171139Y409553D01*
X171098Y409708D01*
X171060Y409865D01*
X171027Y410022D01*
X170997Y410180D01*
X170971Y410339D01*
X170950Y410498D01*
X170932Y410658D01*
X170918Y410818D01*
X170908Y410979D01*
X170902Y411139D01*
X170900Y411300D01*
D11*
X116650Y368300D02*
X116661Y369177D01*
X116693Y370054D01*
X116747Y370930D01*
X116822Y371804D01*
X116919Y372676D01*
X117037Y373546D01*
X117176Y374412D01*
X117337Y375274D01*
X117519Y376133D01*
X117721Y376987D01*
X117945Y377835D01*
X118189Y378678D01*
X118454Y379514D01*
X118740Y380344D01*
X119046Y381166D01*
X119371Y381981D01*
X119717Y382787D01*
X120082Y383585D01*
X120467Y384374D01*
X120871Y385152D01*
X121294Y385921D01*
X121736Y386679D01*
X122196Y387426D01*
X122675Y388162D01*
X123171Y388885D01*
X123685Y389596D01*
X124217Y390295D01*
X124765Y390980D01*
X125330Y391651D01*
X125911Y392308D01*
X126508Y392951D01*
X127121Y393579D01*
X127749Y394192D01*
X128392Y394789D01*
X129049Y395370D01*
X129720Y395935D01*
X130405Y396483D01*
X131104Y397015D01*
X131815Y397529D01*
X132538Y398025D01*
X133274Y398504D01*
X134021Y398964D01*
X134779Y399406D01*
X135548Y399829D01*
X136326Y400233D01*
X137115Y400618D01*
X137913Y400983D01*
X138719Y401329D01*
X139534Y401654D01*
X140356Y401960D01*
X141186Y402246D01*
X142022Y402511D01*
X142865Y402755D01*
X143713Y402979D01*
X144567Y403181D01*
X145426Y403363D01*
X146288Y403524D01*
X147154Y403663D01*
X148024Y403781D01*
X148896Y403878D01*
X149770Y403953D01*
X150646Y404007D01*
X151523Y404039D01*
X152400Y404050D01*
X153277Y404039D01*
X154154Y404007D01*
X155030Y403953D01*
X155904Y403878D01*
X156776Y403781D01*
X157646Y403663D01*
X158512Y403524D01*
X159374Y403363D01*
X160233Y403181D01*
X161087Y402979D01*
X161935Y402755D01*
X162778Y402511D01*
X163614Y402246D01*
X164444Y401960D01*
X165266Y401654D01*
X166081Y401329D01*
X166887Y400983D01*
X167685Y400618D01*
X168474Y400233D01*
X169252Y399829D01*
X170021Y399406D01*
X170779Y398964D01*
X171526Y398504D01*
X172262Y398025D01*
X172985Y397529D01*
X173696Y397015D01*
X174395Y396483D01*
X175080Y395935D01*
X175751Y395370D01*
X176408Y394789D01*
X177051Y394192D01*
X177679Y393579D01*
X178292Y392951D01*
X178889Y392308D01*
X179470Y391651D01*
X180035Y390980D01*
X180583Y390295D01*
X181115Y389596D01*
X181629Y388885D01*
X182125Y388162D01*
X182604Y387426D01*
X183064Y386679D01*
X183506Y385921D01*
X183929Y385152D01*
X184333Y384374D01*
X184718Y383585D01*
X185083Y382787D01*
X185429Y381981D01*
X185754Y381166D01*
X186060Y380344D01*
X186346Y379514D01*
X186611Y378678D01*
X186855Y377835D01*
X187079Y376987D01*
X187281Y376133D01*
X187463Y375274D01*
X187624Y374412D01*
X187763Y373546D01*
X187881Y372676D01*
X187978Y371804D01*
X188053Y370930D01*
X188107Y370054D01*
X188139Y369177D01*
X188150Y368300D01*
X188139Y367423D01*
X188107Y366546D01*
X188053Y365670D01*
X187978Y364796D01*
X187881Y363924D01*
X187763Y363054D01*
X187624Y362188D01*
X187463Y361326D01*
X187281Y360467D01*
X187079Y359613D01*
X186855Y358765D01*
X186611Y357922D01*
X186346Y357086D01*
X186060Y356256D01*
X185754Y355434D01*
X185429Y354619D01*
X185083Y353813D01*
X184718Y353015D01*
X184333Y352226D01*
X183929Y351448D01*
X183506Y350679D01*
X183064Y349921D01*
X182604Y349174D01*
X182125Y348438D01*
X181629Y347715D01*
X181115Y347004D01*
X180583Y346305D01*
X180035Y345620D01*
X179470Y344949D01*
X178889Y344292D01*
X178292Y343649D01*
X177679Y343021D01*
X177051Y342408D01*
X176408Y341811D01*
X175751Y341230D01*
X175080Y340665D01*
X174395Y340117D01*
X173696Y339585D01*
X172985Y339071D01*
X172262Y338575D01*
X171526Y338096D01*
X170779Y337636D01*
X170021Y337194D01*
X169252Y336771D01*
X168474Y336367D01*
X167685Y335982D01*
X166887Y335617D01*
X166081Y335271D01*
X165266Y334946D01*
X164444Y334640D01*
X163614Y334354D01*
X162778Y334089D01*
X161935Y333845D01*
X161087Y333621D01*
X160233Y333419D01*
X159374Y333237D01*
X158512Y333076D01*
X157646Y332937D01*
X156776Y332819D01*
X155904Y332722D01*
X155030Y332647D01*
X154154Y332593D01*
X153277Y332561D01*
X152400Y332550D01*
X151523Y332561D01*
X150646Y332593D01*
X149770Y332647D01*
X148896Y332722D01*
X148024Y332819D01*
X147154Y332937D01*
X146288Y333076D01*
X145426Y333237D01*
X144567Y333419D01*
X143713Y333621D01*
X142865Y333845D01*
X142022Y334089D01*
X141186Y334354D01*
X140356Y334640D01*
X139534Y334946D01*
X138719Y335271D01*
X137913Y335617D01*
X137115Y335982D01*
X136326Y336367D01*
X135548Y336771D01*
X134779Y337194D01*
X134021Y337636D01*
X133274Y338096D01*
X132538Y338575D01*
X131815Y339071D01*
X131104Y339585D01*
X130405Y340117D01*
X129720Y340665D01*
X129049Y341230D01*
X128392Y341811D01*
X127749Y342408D01*
X127121Y343021D01*
X126508Y343649D01*
X125911Y344292D01*
X125330Y344949D01*
X124765Y345620D01*
X124217Y346305D01*
X123685Y347004D01*
X123171Y347715D01*
X122675Y348438D01*
X122196Y349174D01*
X121736Y349921D01*
X121294Y350679D01*
X120871Y351448D01*
X120467Y352226D01*
X120082Y353015D01*
X119717Y353813D01*
X119371Y354619D01*
X119046Y355434D01*
X118740Y356256D01*
X118454Y357086D01*
X118189Y357922D01*
X117945Y358765D01*
X117721Y359613D01*
X117519Y360467D01*
X117337Y361326D01*
X117176Y362188D01*
X117037Y363054D01*
X116919Y363924D01*
X116822Y364796D01*
X116747Y365670D01*
X116693Y366546D01*
X116661Y367423D01*
X116650Y368300D01*
X124400Y368300D02*
X124408Y368987D01*
X124434Y369674D01*
X124476Y370360D01*
X124535Y371044D01*
X124611Y371727D01*
X124703Y372408D01*
X124812Y373087D01*
X124938Y373763D01*
X125080Y374435D01*
X125239Y375103D01*
X125414Y375768D01*
X125606Y376428D01*
X125813Y377083D01*
X126037Y377733D01*
X126276Y378377D01*
X126531Y379015D01*
X126802Y379647D01*
X127088Y380272D01*
X127390Y380889D01*
X127706Y381499D01*
X128038Y382101D01*
X128384Y382695D01*
X128744Y383280D01*
X129119Y383856D01*
X129508Y384423D01*
X129910Y384980D01*
X130326Y385526D01*
X130756Y386063D01*
X131198Y386589D01*
X131653Y387104D01*
X132121Y387607D01*
X132601Y388099D01*
X133093Y388579D01*
X133596Y389047D01*
X134111Y389502D01*
X134637Y389944D01*
X135174Y390374D01*
X135720Y390790D01*
X136277Y391192D01*
X136844Y391581D01*
X137420Y391956D01*
X138005Y392316D01*
X138599Y392662D01*
X139201Y392994D01*
X139811Y393310D01*
X140428Y393612D01*
X141053Y393898D01*
X141685Y394169D01*
X142323Y394424D01*
X142967Y394663D01*
X143617Y394887D01*
X144272Y395094D01*
X144932Y395286D01*
X145597Y395461D01*
X146265Y395620D01*
X146937Y395762D01*
X147613Y395888D01*
X148292Y395997D01*
X148973Y396089D01*
X149656Y396165D01*
X150340Y396224D01*
X151026Y396266D01*
X151713Y396292D01*
X152400Y396300D01*
X153087Y396292D01*
X153774Y396266D01*
X154460Y396224D01*
X155144Y396165D01*
X155827Y396089D01*
X156508Y395997D01*
X157187Y395888D01*
X157863Y395762D01*
X158535Y395620D01*
X159203Y395461D01*
X159868Y395286D01*
X160528Y395094D01*
X161183Y394887D01*
X161833Y394663D01*
X162477Y394424D01*
X163115Y394169D01*
X163747Y393898D01*
X164372Y393612D01*
X164989Y393310D01*
X165599Y392994D01*
X166201Y392662D01*
X166795Y392316D01*
X167380Y391956D01*
X167956Y391581D01*
X168523Y391192D01*
X169080Y390790D01*
X169626Y390374D01*
X170163Y389944D01*
X170689Y389502D01*
X171204Y389047D01*
X171707Y388579D01*
X172199Y388099D01*
X172679Y387607D01*
X173147Y387104D01*
X173602Y386589D01*
X174044Y386063D01*
X174474Y385526D01*
X174890Y384980D01*
X175292Y384423D01*
X175681Y383856D01*
X176056Y383280D01*
X176416Y382695D01*
X176762Y382101D01*
X177094Y381499D01*
X177410Y380889D01*
X177712Y380272D01*
X177998Y379647D01*
X178269Y379015D01*
X178524Y378377D01*
X178763Y377733D01*
X178987Y377083D01*
X179194Y376428D01*
X179386Y375768D01*
X179561Y375103D01*
X179720Y374435D01*
X179862Y373763D01*
X179988Y373087D01*
X180097Y372408D01*
X180189Y371727D01*
X180265Y371044D01*
X180324Y370360D01*
X180366Y369674D01*
X180392Y368987D01*
X180400Y368300D01*
X180392Y367613D01*
X180366Y366926D01*
X180324Y366240D01*
X180265Y365556D01*
X180189Y364873D01*
X180097Y364192D01*
X179988Y363513D01*
X179862Y362837D01*
X179720Y362165D01*
X179561Y361497D01*
X179386Y360832D01*
X179194Y360172D01*
X178987Y359517D01*
X178763Y358867D01*
X178524Y358223D01*
X178269Y357585D01*
X177998Y356953D01*
X177712Y356328D01*
X177410Y355711D01*
X177094Y355101D01*
X176762Y354499D01*
X176416Y353905D01*
X176056Y353320D01*
X175681Y352744D01*
X175292Y352177D01*
X174890Y351620D01*
X174474Y351074D01*
X174044Y350537D01*
X173602Y350011D01*
X173147Y349496D01*
X172679Y348993D01*
X172199Y348501D01*
X171707Y348021D01*
X171204Y347553D01*
X170689Y347098D01*
X170163Y346656D01*
X169626Y346226D01*
X169080Y345810D01*
X168523Y345408D01*
X167956Y345019D01*
X167380Y344644D01*
X166795Y344284D01*
X166201Y343938D01*
X165599Y343606D01*
X164989Y343290D01*
X164372Y342988D01*
X163747Y342702D01*
X163115Y342431D01*
X162477Y342176D01*
X161833Y341937D01*
X161183Y341713D01*
X160528Y341506D01*
X159868Y341314D01*
X159203Y341139D01*
X158535Y340980D01*
X157863Y340838D01*
X157187Y340712D01*
X156508Y340603D01*
X155827Y340511D01*
X155144Y340435D01*
X154460Y340376D01*
X153774Y340334D01*
X153087Y340308D01*
X152400Y340300D01*
X151713Y340308D01*
X151026Y340334D01*
X150340Y340376D01*
X149656Y340435D01*
X148973Y340511D01*
X148292Y340603D01*
X147613Y340712D01*
X146937Y340838D01*
X146265Y340980D01*
X145597Y341139D01*
X144932Y341314D01*
X144272Y341506D01*
X143617Y341713D01*
X142967Y341937D01*
X142323Y342176D01*
X141685Y342431D01*
X141053Y342702D01*
X140428Y342988D01*
X139811Y343290D01*
X139201Y343606D01*
X138599Y343938D01*
X138005Y344284D01*
X137420Y344644D01*
X136844Y345019D01*
X136277Y345408D01*
X135720Y345810D01*
X135174Y346226D01*
X134637Y346656D01*
X134111Y347098D01*
X133596Y347553D01*
X133093Y348021D01*
X132601Y348501D01*
X132121Y348993D01*
X131653Y349496D01*
X131198Y350011D01*
X130756Y350537D01*
X130326Y351074D01*
X129910Y351620D01*
X129508Y352177D01*
X129119Y352744D01*
X128744Y353320D01*
X128384Y353905D01*
X128038Y354499D01*
X127706Y355101D01*
X127390Y355711D01*
X127088Y356328D01*
X126802Y356953D01*
X126531Y357585D01*
X126276Y358223D01*
X126037Y358867D01*
X125813Y359517D01*
X125606Y360172D01*
X125414Y360832D01*
X125239Y361497D01*
X125080Y362165D01*
X124938Y362837D01*
X124812Y363513D01*
X124703Y364192D01*
X124611Y364873D01*
X124535Y365556D01*
X124476Y366240D01*
X124434Y366926D01*
X124408Y367613D01*
X124400Y368300D01*
D13*
X120900Y325300D02*
X120902Y325461D01*
X120908Y325621D01*
X120918Y325782D01*
X120932Y325942D01*
X120950Y326102D01*
X120971Y326261D01*
X120997Y326420D01*
X121027Y326578D01*
X121060Y326735D01*
X121098Y326892D01*
X121139Y327047D01*
X121184Y327201D01*
X121233Y327354D01*
X121286Y327506D01*
X121342Y327657D01*
X121403Y327806D01*
X121466Y327954D01*
X121534Y328100D01*
X121605Y328244D01*
X121679Y328386D01*
X121757Y328527D01*
X121839Y328665D01*
X121924Y328802D01*
X122012Y328936D01*
X122104Y329068D01*
X122199Y329198D01*
X122297Y329326D01*
X122398Y329451D01*
X122502Y329573D01*
X122609Y329693D01*
X122719Y329810D01*
X122832Y329925D01*
X122948Y330036D01*
X123067Y330145D01*
X123188Y330250D01*
X123312Y330353D01*
X123438Y330453D01*
X123566Y330549D01*
X123697Y330642D01*
X123831Y330732D01*
X123966Y330819D01*
X124104Y330902D01*
X124243Y330982D01*
X124385Y331058D01*
X124528Y331131D01*
X124673Y331200D01*
X124820Y331266D01*
X124968Y331328D01*
X125118Y331386D01*
X125269Y331441D01*
X125422Y331492D01*
X125576Y331539D01*
X125731Y331582D01*
X125887Y331621D01*
X126043Y331657D01*
X126201Y331688D01*
X126359Y331716D01*
X126518Y331740D01*
X126678Y331760D01*
X126838Y331776D01*
X126998Y331788D01*
X127159Y331796D01*
X127320Y331800D01*
X127480Y331800D01*
X127641Y331796D01*
X127802Y331788D01*
X127962Y331776D01*
X128122Y331760D01*
X128282Y331740D01*
X128441Y331716D01*
X128599Y331688D01*
X128757Y331657D01*
X128913Y331621D01*
X129069Y331582D01*
X129224Y331539D01*
X129378Y331492D01*
X129531Y331441D01*
X129682Y331386D01*
X129832Y331328D01*
X129980Y331266D01*
X130127Y331200D01*
X130272Y331131D01*
X130415Y331058D01*
X130557Y330982D01*
X130696Y330902D01*
X130834Y330819D01*
X130969Y330732D01*
X131103Y330642D01*
X131234Y330549D01*
X131362Y330453D01*
X131488Y330353D01*
X131612Y330250D01*
X131733Y330145D01*
X131852Y330036D01*
X131968Y329925D01*
X132081Y329810D01*
X132191Y329693D01*
X132298Y329573D01*
X132402Y329451D01*
X132503Y329326D01*
X132601Y329198D01*
X132696Y329068D01*
X132788Y328936D01*
X132876Y328802D01*
X132961Y328665D01*
X133043Y328527D01*
X133121Y328386D01*
X133195Y328244D01*
X133266Y328100D01*
X133334Y327954D01*
X133397Y327806D01*
X133458Y327657D01*
X133514Y327506D01*
X133567Y327354D01*
X133616Y327201D01*
X133661Y327047D01*
X133702Y326892D01*
X133740Y326735D01*
X133773Y326578D01*
X133803Y326420D01*
X133829Y326261D01*
X133850Y326102D01*
X133868Y325942D01*
X133882Y325782D01*
X133892Y325621D01*
X133898Y325461D01*
X133900Y325300D01*
X133898Y325139D01*
X133892Y324979D01*
X133882Y324818D01*
X133868Y324658D01*
X133850Y324498D01*
X133829Y324339D01*
X133803Y324180D01*
X133773Y324022D01*
X133740Y323865D01*
X133702Y323708D01*
X133661Y323553D01*
X133616Y323399D01*
X133567Y323246D01*
X133514Y323094D01*
X133458Y322943D01*
X133397Y322794D01*
X133334Y322646D01*
X133266Y322500D01*
X133195Y322356D01*
X133121Y322214D01*
X133043Y322073D01*
X132961Y321935D01*
X132876Y321798D01*
X132788Y321664D01*
X132696Y321532D01*
X132601Y321402D01*
X132503Y321274D01*
X132402Y321149D01*
X132298Y321027D01*
X132191Y320907D01*
X132081Y320790D01*
X131968Y320675D01*
X131852Y320564D01*
X131733Y320455D01*
X131612Y320350D01*
X131488Y320247D01*
X131362Y320147D01*
X131234Y320051D01*
X131103Y319958D01*
X130969Y319868D01*
X130834Y319781D01*
X130696Y319698D01*
X130557Y319618D01*
X130415Y319542D01*
X130272Y319469D01*
X130127Y319400D01*
X129980Y319334D01*
X129832Y319272D01*
X129682Y319214D01*
X129531Y319159D01*
X129378Y319108D01*
X129224Y319061D01*
X129069Y319018D01*
X128913Y318979D01*
X128757Y318943D01*
X128599Y318912D01*
X128441Y318884D01*
X128282Y318860D01*
X128122Y318840D01*
X127962Y318824D01*
X127802Y318812D01*
X127641Y318804D01*
X127480Y318800D01*
X127320Y318800D01*
X127159Y318804D01*
X126998Y318812D01*
X126838Y318824D01*
X126678Y318840D01*
X126518Y318860D01*
X126359Y318884D01*
X126201Y318912D01*
X126043Y318943D01*
X125887Y318979D01*
X125731Y319018D01*
X125576Y319061D01*
X125422Y319108D01*
X125269Y319159D01*
X125118Y319214D01*
X124968Y319272D01*
X124820Y319334D01*
X124673Y319400D01*
X124528Y319469D01*
X124385Y319542D01*
X124243Y319618D01*
X124104Y319698D01*
X123966Y319781D01*
X123831Y319868D01*
X123697Y319958D01*
X123566Y320051D01*
X123438Y320147D01*
X123312Y320247D01*
X123188Y320350D01*
X123067Y320455D01*
X122948Y320564D01*
X122832Y320675D01*
X122719Y320790D01*
X122609Y320907D01*
X122502Y321027D01*
X122398Y321149D01*
X122297Y321274D01*
X122199Y321402D01*
X122104Y321532D01*
X122012Y321664D01*
X121924Y321798D01*
X121839Y321935D01*
X121757Y322073D01*
X121679Y322214D01*
X121605Y322356D01*
X121534Y322500D01*
X121466Y322646D01*
X121403Y322794D01*
X121342Y322943D01*
X121286Y323094D01*
X121233Y323246D01*
X121184Y323399D01*
X121139Y323553D01*
X121098Y323708D01*
X121060Y323865D01*
X121027Y324022D01*
X120997Y324180D01*
X120971Y324339D01*
X120950Y324498D01*
X120932Y324658D01*
X120918Y324818D01*
X120908Y324979D01*
X120902Y325139D01*
X120900Y325300D01*
D10*
X83820Y45720D02*
X83820Y43180D01*
X68580Y43180D01*
X68580Y45720D01*
X68580Y106680D02*
X68580Y109220D01*
X83820Y109220D01*
X83820Y106680D01*
D14*
X48260Y88900D02*
X45720Y88900D01*
X48260Y88900D02*
X48260Y63500D01*
X45720Y63500D01*
X104140Y64770D02*
X104140Y88900D01*
X104140Y64770D02*
X106680Y64770D01*
X106680Y88900D02*
X104140Y88900D01*
D10*
X106680Y88900D02*
X106680Y97790D01*
X45720Y63500D02*
X45720Y54610D01*
X45720Y63500D02*
X45720Y88900D01*
X45720Y97790D01*
X106680Y88900D02*
X106680Y64770D01*
X106680Y54610D01*
X86360Y45720D02*
X83820Y45720D01*
X68580Y45720D02*
X66040Y45720D01*
X83820Y106680D02*
X86360Y106680D01*
X68580Y106680D02*
X66040Y106680D01*
X58420Y76200D02*
X58425Y76636D01*
X58441Y77072D01*
X58468Y77508D01*
X58506Y77943D01*
X58554Y78376D01*
X58612Y78809D01*
X58682Y79240D01*
X58762Y79669D01*
X58852Y80096D01*
X58953Y80520D01*
X59064Y80942D01*
X59186Y81361D01*
X59317Y81777D01*
X59459Y82190D01*
X59611Y82599D01*
X59773Y83004D01*
X59945Y83405D01*
X60127Y83802D01*
X60318Y84194D01*
X60519Y84581D01*
X60730Y84964D01*
X60950Y85341D01*
X61179Y85712D01*
X61416Y86078D01*
X61663Y86438D01*
X61919Y86792D01*
X62183Y87139D01*
X62456Y87480D01*
X62737Y87813D01*
X63026Y88140D01*
X63323Y88460D01*
X63628Y88772D01*
X63940Y89077D01*
X64260Y89374D01*
X64587Y89663D01*
X64920Y89944D01*
X65261Y90217D01*
X65608Y90481D01*
X65962Y90737D01*
X66322Y90984D01*
X66688Y91221D01*
X67059Y91450D01*
X67436Y91670D01*
X67819Y91881D01*
X68206Y92082D01*
X68598Y92273D01*
X68995Y92455D01*
X69396Y92627D01*
X69801Y92789D01*
X70210Y92941D01*
X70623Y93083D01*
X71039Y93214D01*
X71458Y93336D01*
X71880Y93447D01*
X72304Y93548D01*
X72731Y93638D01*
X73160Y93718D01*
X73591Y93788D01*
X74024Y93846D01*
X74457Y93894D01*
X74892Y93932D01*
X75328Y93959D01*
X75764Y93975D01*
X76200Y93980D01*
X76636Y93975D01*
X77072Y93959D01*
X77508Y93932D01*
X77943Y93894D01*
X78376Y93846D01*
X78809Y93788D01*
X79240Y93718D01*
X79669Y93638D01*
X80096Y93548D01*
X80520Y93447D01*
X80942Y93336D01*
X81361Y93214D01*
X81777Y93083D01*
X82190Y92941D01*
X82599Y92789D01*
X83004Y92627D01*
X83405Y92455D01*
X83802Y92273D01*
X84194Y92082D01*
X84581Y91881D01*
X84964Y91670D01*
X85341Y91450D01*
X85712Y91221D01*
X86078Y90984D01*
X86438Y90737D01*
X86792Y90481D01*
X87139Y90217D01*
X87480Y89944D01*
X87813Y89663D01*
X88140Y89374D01*
X88460Y89077D01*
X88772Y88772D01*
X89077Y88460D01*
X89374Y88140D01*
X89663Y87813D01*
X89944Y87480D01*
X90217Y87139D01*
X90481Y86792D01*
X90737Y86438D01*
X90984Y86078D01*
X91221Y85712D01*
X91450Y85341D01*
X91670Y84964D01*
X91881Y84581D01*
X92082Y84194D01*
X92273Y83802D01*
X92455Y83405D01*
X92627Y83004D01*
X92789Y82599D01*
X92941Y82190D01*
X93083Y81777D01*
X93214Y81361D01*
X93336Y80942D01*
X93447Y80520D01*
X93548Y80096D01*
X93638Y79669D01*
X93718Y79240D01*
X93788Y78809D01*
X93846Y78376D01*
X93894Y77943D01*
X93932Y77508D01*
X93959Y77072D01*
X93975Y76636D01*
X93980Y76200D01*
X93975Y75764D01*
X93959Y75328D01*
X93932Y74892D01*
X93894Y74457D01*
X93846Y74024D01*
X93788Y73591D01*
X93718Y73160D01*
X93638Y72731D01*
X93548Y72304D01*
X93447Y71880D01*
X93336Y71458D01*
X93214Y71039D01*
X93083Y70623D01*
X92941Y70210D01*
X92789Y69801D01*
X92627Y69396D01*
X92455Y68995D01*
X92273Y68598D01*
X92082Y68206D01*
X91881Y67819D01*
X91670Y67436D01*
X91450Y67059D01*
X91221Y66688D01*
X90984Y66322D01*
X90737Y65962D01*
X90481Y65608D01*
X90217Y65261D01*
X89944Y64920D01*
X89663Y64587D01*
X89374Y64260D01*
X89077Y63940D01*
X88772Y63628D01*
X88460Y63323D01*
X88140Y63026D01*
X87813Y62737D01*
X87480Y62456D01*
X87139Y62183D01*
X86792Y61919D01*
X86438Y61663D01*
X86078Y61416D01*
X85712Y61179D01*
X85341Y60950D01*
X84964Y60730D01*
X84581Y60519D01*
X84194Y60318D01*
X83802Y60127D01*
X83405Y59945D01*
X83004Y59773D01*
X82599Y59611D01*
X82190Y59459D01*
X81777Y59317D01*
X81361Y59186D01*
X80942Y59064D01*
X80520Y58953D01*
X80096Y58852D01*
X79669Y58762D01*
X79240Y58682D01*
X78809Y58612D01*
X78376Y58554D01*
X77943Y58506D01*
X77508Y58468D01*
X77072Y58441D01*
X76636Y58425D01*
X76200Y58420D01*
X75764Y58425D01*
X75328Y58441D01*
X74892Y58468D01*
X74457Y58506D01*
X74024Y58554D01*
X73591Y58612D01*
X73160Y58682D01*
X72731Y58762D01*
X72304Y58852D01*
X71880Y58953D01*
X71458Y59064D01*
X71039Y59186D01*
X70623Y59317D01*
X70210Y59459D01*
X69801Y59611D01*
X69396Y59773D01*
X68995Y59945D01*
X68598Y60127D01*
X68206Y60318D01*
X67819Y60519D01*
X67436Y60730D01*
X67059Y60950D01*
X66688Y61179D01*
X66322Y61416D01*
X65962Y61663D01*
X65608Y61919D01*
X65261Y62183D01*
X64920Y62456D01*
X64587Y62737D01*
X64260Y63026D01*
X63940Y63323D01*
X63628Y63628D01*
X63323Y63940D01*
X63026Y64260D01*
X62737Y64587D01*
X62456Y64920D01*
X62183Y65261D01*
X61919Y65608D01*
X61663Y65962D01*
X61416Y66322D01*
X61179Y66688D01*
X60950Y67059D01*
X60730Y67436D01*
X60519Y67819D01*
X60318Y68206D01*
X60127Y68598D01*
X59945Y68995D01*
X59773Y69396D01*
X59611Y69801D01*
X59459Y70210D01*
X59317Y70623D01*
X59186Y71039D01*
X59064Y71458D01*
X58953Y71880D01*
X58852Y72304D01*
X58762Y72731D01*
X58682Y73160D01*
X58612Y73591D01*
X58554Y74024D01*
X58506Y74457D01*
X58468Y74892D01*
X58441Y75328D01*
X58425Y75764D01*
X58420Y76200D01*
X73660Y76200D02*
X73662Y76300D01*
X73668Y76401D01*
X73678Y76500D01*
X73692Y76600D01*
X73709Y76699D01*
X73731Y76797D01*
X73757Y76894D01*
X73786Y76990D01*
X73819Y77084D01*
X73856Y77178D01*
X73896Y77270D01*
X73940Y77360D01*
X73988Y77448D01*
X74039Y77535D01*
X74093Y77619D01*
X74151Y77701D01*
X74212Y77781D01*
X74276Y77858D01*
X74343Y77933D01*
X74413Y78005D01*
X74486Y78074D01*
X74561Y78140D01*
X74639Y78204D01*
X74719Y78264D01*
X74802Y78321D01*
X74887Y78374D01*
X74974Y78424D01*
X75063Y78471D01*
X75153Y78514D01*
X75245Y78554D01*
X75339Y78590D01*
X75434Y78622D01*
X75530Y78650D01*
X75628Y78675D01*
X75726Y78695D01*
X75825Y78712D01*
X75925Y78725D01*
X76024Y78734D01*
X76125Y78739D01*
X76225Y78740D01*
X76325Y78737D01*
X76426Y78730D01*
X76525Y78719D01*
X76625Y78704D01*
X76723Y78686D01*
X76821Y78663D01*
X76918Y78636D01*
X77013Y78606D01*
X77108Y78572D01*
X77201Y78534D01*
X77292Y78493D01*
X77382Y78448D01*
X77470Y78400D01*
X77556Y78348D01*
X77640Y78293D01*
X77721Y78234D01*
X77800Y78172D01*
X77877Y78108D01*
X77951Y78040D01*
X78022Y77969D01*
X78091Y77896D01*
X78156Y77820D01*
X78219Y77741D01*
X78278Y77660D01*
X78334Y77577D01*
X78387Y77492D01*
X78436Y77404D01*
X78482Y77315D01*
X78524Y77224D01*
X78563Y77131D01*
X78598Y77037D01*
X78629Y76942D01*
X78657Y76845D01*
X78680Y76748D01*
X78700Y76649D01*
X78716Y76550D01*
X78728Y76451D01*
X78736Y76350D01*
X78740Y76250D01*
X78740Y76150D01*
X78736Y76050D01*
X78728Y75949D01*
X78716Y75850D01*
X78700Y75751D01*
X78680Y75652D01*
X78657Y75555D01*
X78629Y75458D01*
X78598Y75363D01*
X78563Y75269D01*
X78524Y75176D01*
X78482Y75085D01*
X78436Y74996D01*
X78387Y74908D01*
X78334Y74823D01*
X78278Y74740D01*
X78219Y74659D01*
X78156Y74580D01*
X78091Y74504D01*
X78022Y74431D01*
X77951Y74360D01*
X77877Y74292D01*
X77800Y74228D01*
X77721Y74166D01*
X77640Y74107D01*
X77556Y74052D01*
X77470Y74000D01*
X77382Y73952D01*
X77292Y73907D01*
X77201Y73866D01*
X77108Y73828D01*
X77013Y73794D01*
X76918Y73764D01*
X76821Y73737D01*
X76723Y73714D01*
X76625Y73696D01*
X76525Y73681D01*
X76426Y73670D01*
X76325Y73663D01*
X76225Y73660D01*
X76125Y73661D01*
X76024Y73666D01*
X75925Y73675D01*
X75825Y73688D01*
X75726Y73705D01*
X75628Y73725D01*
X75530Y73750D01*
X75434Y73778D01*
X75339Y73810D01*
X75245Y73846D01*
X75153Y73886D01*
X75063Y73929D01*
X74974Y73976D01*
X74887Y74026D01*
X74802Y74079D01*
X74719Y74136D01*
X74639Y74196D01*
X74561Y74260D01*
X74486Y74326D01*
X74413Y74395D01*
X74343Y74467D01*
X74276Y74542D01*
X74212Y74619D01*
X74151Y74699D01*
X74093Y74781D01*
X74039Y74865D01*
X73988Y74952D01*
X73940Y75040D01*
X73896Y75130D01*
X73856Y75222D01*
X73819Y75316D01*
X73786Y75410D01*
X73757Y75506D01*
X73731Y75603D01*
X73709Y75701D01*
X73692Y75800D01*
X73678Y75900D01*
X73668Y75999D01*
X73662Y76100D01*
X73660Y76200D01*
D15*
X83185Y20955D02*
X83187Y20855D01*
X83193Y20756D01*
X83203Y20656D01*
X83216Y20558D01*
X83234Y20459D01*
X83255Y20362D01*
X83280Y20266D01*
X83309Y20170D01*
X83342Y20076D01*
X83378Y19983D01*
X83418Y19892D01*
X83462Y19802D01*
X83509Y19714D01*
X83559Y19628D01*
X83613Y19544D01*
X83670Y19462D01*
X83730Y19383D01*
X83794Y19305D01*
X83860Y19231D01*
X83929Y19159D01*
X84001Y19090D01*
X84075Y19024D01*
X84153Y18960D01*
X84232Y18900D01*
X84314Y18843D01*
X84398Y18789D01*
X84484Y18739D01*
X84572Y18692D01*
X84662Y18648D01*
X84753Y18608D01*
X84846Y18572D01*
X84940Y18539D01*
X85036Y18510D01*
X85132Y18485D01*
X85229Y18464D01*
X85328Y18446D01*
X85426Y18433D01*
X85526Y18423D01*
X85625Y18417D01*
X85725Y18415D01*
X85866Y18417D01*
X86007Y18422D01*
X86148Y18432D01*
X86289Y18445D01*
X86429Y18461D01*
X86569Y18482D01*
X86708Y18506D01*
X86847Y18534D01*
X86984Y18565D01*
X87121Y18600D01*
X87257Y18638D01*
X87392Y18680D01*
X87525Y18726D01*
X87658Y18775D01*
X87789Y18828D01*
X87918Y18884D01*
X88047Y18943D01*
X88173Y19006D01*
X88298Y19072D01*
X88421Y19141D01*
X88542Y19214D01*
X88661Y19290D01*
X88779Y19369D01*
X88894Y19450D01*
X89006Y19535D01*
X89117Y19623D01*
X89225Y19714D01*
X89331Y19807D01*
X89434Y19904D01*
X89535Y20003D01*
X89218Y27305D02*
X89216Y27405D01*
X89210Y27504D01*
X89200Y27604D01*
X89187Y27702D01*
X89169Y27801D01*
X89148Y27898D01*
X89123Y27994D01*
X89094Y28090D01*
X89061Y28184D01*
X89025Y28277D01*
X88985Y28368D01*
X88941Y28458D01*
X88894Y28546D01*
X88844Y28632D01*
X88790Y28716D01*
X88733Y28798D01*
X88673Y28877D01*
X88609Y28955D01*
X88543Y29029D01*
X88474Y29101D01*
X88402Y29170D01*
X88328Y29236D01*
X88250Y29300D01*
X88171Y29360D01*
X88089Y29417D01*
X88005Y29471D01*
X87919Y29521D01*
X87831Y29568D01*
X87741Y29612D01*
X87650Y29652D01*
X87557Y29688D01*
X87463Y29721D01*
X87367Y29750D01*
X87271Y29775D01*
X87174Y29796D01*
X87075Y29814D01*
X86977Y29827D01*
X86877Y29837D01*
X86778Y29843D01*
X86678Y29845D01*
X86678Y29846D02*
X86545Y29844D01*
X86412Y29839D01*
X86279Y29829D01*
X86146Y29816D01*
X86014Y29799D01*
X85882Y29779D01*
X85751Y29755D01*
X85621Y29727D01*
X85491Y29696D01*
X85363Y29661D01*
X85235Y29622D01*
X85109Y29580D01*
X84984Y29534D01*
X84860Y29485D01*
X84737Y29433D01*
X84616Y29377D01*
X84497Y29317D01*
X84379Y29255D01*
X84264Y29189D01*
X84150Y29120D01*
X84038Y29047D01*
X83928Y28972D01*
X83820Y28893D01*
X87948Y25082D02*
X88032Y25134D01*
X88115Y25189D01*
X88195Y25248D01*
X88273Y25309D01*
X88348Y25373D01*
X88421Y25441D01*
X88492Y25511D01*
X88559Y25583D01*
X88624Y25658D01*
X88686Y25736D01*
X88745Y25816D01*
X88801Y25898D01*
X88853Y25982D01*
X88902Y26068D01*
X88948Y26156D01*
X88991Y26246D01*
X89030Y26337D01*
X89065Y26430D01*
X89097Y26524D01*
X89125Y26619D01*
X89150Y26715D01*
X89170Y26812D01*
X89188Y26910D01*
X89201Y27008D01*
X89210Y27107D01*
X89216Y27206D01*
X89218Y27305D01*
X84455Y23178D02*
X84371Y23126D01*
X84288Y23071D01*
X84208Y23012D01*
X84130Y22951D01*
X84055Y22887D01*
X83982Y22819D01*
X83911Y22749D01*
X83844Y22677D01*
X83779Y22602D01*
X83717Y22524D01*
X83658Y22444D01*
X83602Y22362D01*
X83550Y22278D01*
X83501Y22192D01*
X83455Y22104D01*
X83412Y22014D01*
X83373Y21923D01*
X83338Y21830D01*
X83306Y21736D01*
X83278Y21641D01*
X83253Y21545D01*
X83233Y21448D01*
X83215Y21350D01*
X83202Y21252D01*
X83193Y21153D01*
X83187Y21054D01*
X83185Y20955D01*
X84455Y23178D02*
X87948Y25083D01*
X74994Y29846D02*
X74890Y29844D01*
X74785Y29838D01*
X74681Y29829D01*
X74578Y29816D01*
X74475Y29798D01*
X74373Y29778D01*
X74271Y29753D01*
X74171Y29725D01*
X74071Y29693D01*
X73973Y29657D01*
X73876Y29618D01*
X73781Y29576D01*
X73687Y29530D01*
X73595Y29480D01*
X73505Y29428D01*
X73417Y29372D01*
X73331Y29312D01*
X73247Y29250D01*
X73166Y29185D01*
X73087Y29117D01*
X73010Y29045D01*
X72937Y28972D01*
X72865Y28895D01*
X72797Y28816D01*
X72732Y28735D01*
X72670Y28651D01*
X72610Y28565D01*
X72554Y28477D01*
X72502Y28387D01*
X72452Y28295D01*
X72406Y28201D01*
X72364Y28106D01*
X72325Y28009D01*
X72289Y27911D01*
X72257Y27811D01*
X72229Y27711D01*
X72204Y27609D01*
X72184Y27507D01*
X72166Y27404D01*
X72153Y27301D01*
X72144Y27197D01*
X72138Y27092D01*
X72136Y26988D01*
X74994Y29845D02*
X75112Y29843D01*
X75231Y29837D01*
X75349Y29828D01*
X75466Y29815D01*
X75583Y29797D01*
X75700Y29777D01*
X75816Y29752D01*
X75931Y29724D01*
X76044Y29691D01*
X76157Y29656D01*
X76269Y29616D01*
X76379Y29574D01*
X76488Y29527D01*
X76596Y29477D01*
X76701Y29424D01*
X76805Y29367D01*
X76907Y29307D01*
X77007Y29244D01*
X77105Y29177D01*
X77201Y29108D01*
X77294Y29035D01*
X77385Y28959D01*
X77474Y28881D01*
X77560Y28799D01*
X77643Y28715D01*
X77724Y28629D01*
X77801Y28539D01*
X77876Y28448D01*
X77948Y28354D01*
X78017Y28257D01*
X78082Y28159D01*
X78145Y28058D01*
X78204Y27955D01*
X78260Y27851D01*
X78312Y27745D01*
X78361Y27637D01*
X78406Y27528D01*
X78448Y27417D01*
X78486Y27305D01*
X73088Y24766D02*
X73012Y24841D01*
X72937Y24920D01*
X72866Y25001D01*
X72797Y25085D01*
X72732Y25171D01*
X72670Y25259D01*
X72610Y25349D01*
X72554Y25441D01*
X72501Y25536D01*
X72452Y25632D01*
X72406Y25730D01*
X72363Y25829D01*
X72324Y25930D01*
X72289Y26032D01*
X72257Y26135D01*
X72229Y26239D01*
X72204Y26344D01*
X72183Y26451D01*
X72166Y26557D01*
X72153Y26664D01*
X72144Y26772D01*
X72138Y26880D01*
X72136Y26988D01*
X73089Y24765D02*
X78486Y18415D01*
X72136Y18415D01*
M02*
