G04 EAGLE Gerber RS-274X export*
G75*
%MOMM*%
%FSLAX34Y34*%
%LPD*%
%INSoldermask Top*%
%IPPOS*%
%AMOC8*
5,1,8,0,0,1.08239X$1,22.5*%
G01*
%ADD10C,3.203194*%
%ADD11P,1.951982X8X22.500000*%
%ADD12C,1.879600*%
%ADD13C,1.727200*%
%ADD14C,3.505200*%
%ADD15C,1.524000*%
%ADD16C,2.203200*%
%ADD17P,1.649562X8X202.500000*%
%ADD18C,1.320800*%
%ADD19P,1.759533X8X22.500000*%
%ADD20P,1.759533X8X202.500000*%
%ADD21P,1.649562X8X22.500000*%
%ADD22P,1.869504X8X202.500000*%
%ADD23C,5.283200*%
%ADD24R,3.003200X3.003200*%
%ADD25P,1.951982X8X112.500000*%
%ADD26C,1.803400*%
%ADD27P,1.951982X8X292.500000*%
%ADD28C,1.117600*%


D10*
X25400Y520700D03*
X25400Y190500D03*
X660400Y190500D03*
X660400Y520700D03*
D11*
X24130Y444500D03*
X49530Y444500D03*
X24130Y279400D03*
X49530Y279400D03*
D12*
X554990Y152400D03*
X554990Y254000D03*
X499110Y152400D03*
X499110Y254000D03*
X527050Y152400D03*
X527050Y254000D03*
D13*
X387350Y341630D02*
X387350Y356870D01*
X412750Y356870D02*
X412750Y341630D01*
X438150Y341630D02*
X438150Y356870D01*
D14*
X412750Y499110D03*
D15*
X236474Y508000D02*
X223266Y508000D01*
X223266Y482600D02*
X236474Y482600D01*
X236474Y457200D02*
X223266Y457200D01*
X223266Y431800D02*
X236474Y431800D01*
X236474Y406400D02*
X223266Y406400D01*
X223266Y381000D02*
X236474Y381000D01*
X236474Y355600D02*
X223266Y355600D01*
X223266Y330200D02*
X236474Y330200D01*
X236474Y304800D02*
X223266Y304800D01*
X223266Y279400D02*
X236474Y279400D01*
X236474Y254000D02*
X223266Y254000D01*
X223266Y228600D02*
X236474Y228600D01*
X236474Y203200D02*
X223266Y203200D01*
X223266Y177800D02*
X236474Y177800D01*
X299466Y177800D02*
X312674Y177800D01*
X312674Y203200D02*
X299466Y203200D01*
X299466Y228600D02*
X312674Y228600D01*
X312674Y254000D02*
X299466Y254000D01*
X299466Y279400D02*
X312674Y279400D01*
X312674Y304800D02*
X299466Y304800D01*
X299466Y330200D02*
X312674Y330200D01*
X312674Y355600D02*
X299466Y355600D01*
X299466Y381000D02*
X312674Y381000D01*
X312674Y406400D02*
X299466Y406400D01*
X299466Y431800D02*
X312674Y431800D01*
X312674Y457200D02*
X299466Y457200D01*
X299466Y482600D02*
X312674Y482600D01*
X312674Y508000D02*
X299466Y508000D01*
D16*
X292260Y137680D02*
X312260Y137680D01*
X312260Y76680D02*
X292260Y76680D01*
X350260Y96680D02*
X350260Y116680D01*
D17*
X101600Y215900D03*
X76200Y215900D03*
X355600Y215900D03*
X330200Y215900D03*
X609600Y215900D03*
X584200Y215900D03*
D18*
X42418Y336550D02*
X31242Y336550D01*
X31242Y387350D02*
X42418Y387350D01*
D19*
X349250Y177800D03*
X476250Y177800D03*
X349250Y260350D03*
X476250Y260350D03*
X349250Y304800D03*
X476250Y304800D03*
D20*
X247650Y125730D03*
X120650Y125730D03*
D19*
X120650Y76200D03*
X247650Y76200D03*
X120650Y31750D03*
X247650Y31750D03*
D21*
X88900Y508000D03*
X190500Y508000D03*
D15*
X32004Y132080D02*
X18796Y132080D01*
X18796Y106680D02*
X32004Y106680D01*
X32004Y81280D02*
X18796Y81280D01*
X18796Y55880D02*
X32004Y55880D01*
X32004Y30480D02*
X18796Y30480D01*
D22*
X578104Y129540D03*
X550672Y129540D03*
X523240Y129540D03*
X495808Y129540D03*
X468376Y129540D03*
X564388Y104140D03*
X536956Y104140D03*
X509524Y104140D03*
X482092Y104140D03*
D23*
X648462Y116840D03*
X398018Y116840D03*
D12*
X558400Y298300D03*
X533400Y298300D03*
X508400Y298300D03*
D24*
X488400Y368300D03*
X578400Y368300D03*
D12*
X177400Y298300D03*
X152400Y298300D03*
X127400Y298300D03*
D24*
X107400Y368300D03*
X197400Y368300D03*
D25*
X339090Y330200D03*
X339090Y355600D03*
D11*
X527050Y469900D03*
D26*
X501650Y469900D03*
D15*
X609600Y292354D02*
X609600Y279146D01*
X660400Y279146D02*
X660400Y292354D01*
X635000Y292354D02*
X635000Y279146D01*
X609600Y329946D02*
X609600Y343154D01*
X660400Y343154D02*
X660400Y329946D01*
X635000Y329946D02*
X635000Y343154D01*
X609600Y380746D02*
X609600Y393954D01*
X660400Y393954D02*
X660400Y380746D01*
X635000Y380746D02*
X635000Y393954D01*
D27*
X339090Y438150D03*
X339090Y412750D03*
D11*
X628650Y469900D03*
D26*
X603250Y469900D03*
D13*
X53594Y116332D02*
X53594Y101092D01*
X98806Y101092D02*
X98806Y116332D01*
X53594Y51308D02*
X53594Y36068D01*
X98806Y36068D02*
X98806Y51308D01*
D11*
X165100Y190500D03*
X190500Y190500D03*
X165100Y254000D03*
X190500Y254000D03*
D28*
X558800Y406400D03*
X368300Y190500D03*
X571500Y406400D03*
X514350Y203200D03*
M02*
